<svg xmlns="http://www.w3.org/2000/svg" xmlns:xlink="http://www.w3.org/1999/xlink" width="500" zoomAndPan="magnify" viewBox="0 0 375 374.999991" height="500" preserveAspectRatio="xMidYMid meet" version="1.0"><defs><clipPath id="01f4b6d0d7"><path d="M 38 37.5 L 337.5 37.5 L 337.5 344.25 L 38 344.25 Z M 38 37.5 " clip-rule="nonzero"/></clipPath></defs><g clip-path="url(#01f4b6d0d7)"><path fill="#000000" d="M 51.183594 224.894531 C 51.050781 224.480469 50.878906 224.085938 50.664062 223.707031 C 50.453125 223.328125 50.207031 222.976562 49.925781 222.644531 C 49.644531 222.316406 49.332031 222.015625 48.992188 221.746094 C 48.652344 221.480469 48.289062 221.246094 47.902344 221.046875 C 47.515625 220.851562 47.113281 220.695312 46.695312 220.578125 C 46.277344 220.457031 45.855469 220.382812 45.421875 220.347656 C 44.988281 220.3125 44.558594 220.324219 44.125 220.375 C 43.695312 220.425781 43.273438 220.515625 42.863281 220.652344 C 42.449219 220.785156 42.054688 220.957031 41.675781 221.167969 C 41.296875 221.382812 40.941406 221.628906 40.613281 221.910156 C 40.28125 222.191406 39.984375 222.503906 39.714844 222.84375 C 39.445312 223.183594 39.214844 223.546875 39.015625 223.933594 C 38.820312 224.320312 38.660156 224.722656 38.542969 225.140625 C 38.425781 225.558594 38.351562 225.980469 38.316406 226.414062 C 38.28125 226.847656 38.289062 227.277344 38.339844 227.710938 C 38.390625 228.140625 38.484375 228.5625 38.617188 228.972656 L 41.644531 238.121094 L 44.605469 247.398438 C 44.828125 248.085938 45.15625 248.71875 45.585938 249.296875 C 46.019531 249.878906 46.53125 250.371094 47.125 250.78125 C 47.722656 251.191406 48.367188 251.496094 49.058594 251.695312 C 49.753906 251.894531 50.460938 251.972656 51.183594 251.9375 C 51.859375 251.929688 52.515625 251.820312 53.15625 251.609375 C 53.550781 251.46875 53.925781 251.292969 54.289062 251.078125 C 54.648438 250.867188 54.984375 250.621094 55.296875 250.34375 C 55.609375 250.070312 55.894531 249.765625 56.148438 249.433594 C 56.402344 249.101562 56.625 248.75 56.8125 248.378906 C 57 248.003906 57.152344 247.617188 57.265625 247.214844 C 57.378906 246.8125 57.457031 246.40625 57.492188 245.988281 C 57.527344 245.570312 57.523438 245.15625 57.480469 244.738281 C 57.4375 244.324219 57.359375 243.917969 57.238281 243.515625 L 55.921875 240.425781 L 78.617188 233.054688 C 80.433594 237.726562 82.546875 242.261719 84.949219 246.660156 C 87.347656 251.058594 90.023438 255.285156 92.972656 259.335938 C 95.921875 263.390625 99.117188 267.238281 102.5625 270.878906 C 106.003906 274.519531 109.667969 277.921875 113.550781 281.089844 L 99.472656 300.433594 L 96.90625 298.527344 C 96.554688 298.328125 96.183594 298.164062 95.796875 298.03125 C 95.414062 297.902344 95.019531 297.808594 94.617188 297.75 C 94.214844 297.691406 93.808594 297.671875 93.402344 297.691406 C 92.996094 297.707031 92.597656 297.761719 92.199219 297.855469 C 91.804688 297.945312 91.417969 298.074219 91.046875 298.238281 C 90.675781 298.398438 90.320312 298.597656 89.984375 298.824219 C 89.648438 299.054688 89.335938 299.3125 89.046875 299.597656 C 88.757812 299.886719 88.5 300.195312 88.269531 300.53125 C 88.039062 300.867188 87.839844 301.21875 87.675781 301.589844 C 87.511719 301.960938 87.378906 302.347656 87.285156 302.742188 C 87.191406 303.136719 87.136719 303.539062 87.117188 303.945312 C 87.09375 304.351562 87.113281 304.753906 87.167969 305.160156 C 87.222656 305.5625 87.316406 305.957031 87.445312 306.339844 C 87.574219 306.726562 87.734375 307.097656 87.933594 307.453125 C 88.128906 307.808594 88.355469 308.144531 88.617188 308.457031 C 88.875 308.769531 89.160156 309.058594 89.472656 309.320312 L 97.367188 315.042969 L 105.261719 320.769531 C 106.421875 321.605469 107.714844 322.023438 109.144531 322.019531 C 110.199219 322.019531 111.195312 321.785156 112.132812 321.308594 C 113.074219 320.832031 113.851562 320.171875 114.472656 319.320312 C 114.730469 318.972656 114.949219 318.601562 115.132812 318.207031 C 115.3125 317.8125 115.457031 317.40625 115.558594 316.984375 C 115.660156 316.566406 115.71875 316.136719 115.738281 315.703125 C 115.753906 315.273438 115.730469 314.839844 115.664062 314.414062 C 115.597656 313.984375 115.488281 313.570312 115.339844 313.160156 C 115.1875 312.753906 115 312.367188 114.773438 311.996094 C 114.546875 311.628906 114.289062 311.285156 113.992188 310.96875 C 113.699219 310.648438 113.378906 310.363281 113.027344 310.109375 L 110.394531 308.199219 L 124.40625 288.921875 C 128.617188 291.644531 132.988281 294.082031 137.515625 296.234375 C 142.042969 298.382812 146.695312 300.234375 151.464844 301.777344 C 156.234375 303.320312 161.085938 304.546875 166.015625 305.457031 C 170.945312 306.367188 175.914062 306.953125 180.921875 307.214844 L 180.921875 331.097656 L 177.699219 331.097656 C 177.265625 331.097656 176.835938 331.140625 176.414062 331.226562 C 175.988281 331.308594 175.578125 331.433594 175.179688 331.601562 C 174.78125 331.765625 174.402344 331.96875 174.042969 332.207031 C 173.683594 332.449219 173.351562 332.722656 173.046875 333.027344 C 172.738281 333.332031 172.46875 333.664062 172.226562 334.023438 C 171.988281 334.382812 171.785156 334.761719 171.621094 335.160156 C 171.453125 335.558594 171.328125 335.972656 171.246094 336.394531 C 171.160156 336.820312 171.117188 337.246094 171.117188 337.679688 C 171.117188 338.113281 171.160156 338.539062 171.246094 338.964844 C 171.328125 339.386719 171.453125 339.796875 171.621094 340.199219 C 171.785156 340.597656 171.988281 340.976562 172.226562 341.335938 C 172.46875 341.695312 172.738281 342.027344 173.046875 342.332031 C 173.351562 342.636719 173.683594 342.910156 174.042969 343.152344 C 174.402344 343.390625 174.78125 343.59375 175.179688 343.757812 C 175.578125 343.925781 175.988281 344.050781 176.414062 344.132812 C 176.835938 344.21875 177.265625 344.257812 177.699219 344.257812 L 197.433594 344.257812 C 197.867188 344.257812 198.292969 344.21875 198.71875 344.132812 C 199.140625 344.050781 199.554688 343.925781 199.953125 343.757812 C 200.351562 343.59375 200.730469 343.390625 201.089844 343.152344 C 201.449219 342.910156 201.78125 342.636719 202.085938 342.332031 C 202.390625 342.027344 202.664062 341.695312 202.90625 341.335938 C 203.144531 340.976562 203.347656 340.597656 203.511719 340.199219 C 203.675781 339.796875 203.800781 339.386719 203.886719 338.964844 C 203.972656 338.539062 204.011719 338.113281 204.011719 337.679688 C 204.011719 337.246094 203.972656 336.820312 203.886719 336.394531 C 203.800781 335.972656 203.675781 335.558594 203.511719 335.160156 C 203.347656 334.761719 203.144531 334.382812 202.90625 334.023438 C 202.664062 333.664062 202.390625 333.332031 202.085938 333.027344 C 201.78125 332.722656 201.449219 332.449219 201.089844 332.207031 C 200.730469 331.96875 200.351562 331.765625 199.953125 331.601562 C 199.554688 331.433594 199.140625 331.308594 198.71875 331.226562 C 198.292969 331.140625 197.867188 331.097656 197.433594 331.097656 L 194.078125 331.097656 L 194.078125 307.214844 C 199.085938 306.941406 204.054688 306.347656 208.984375 305.429688 C 213.917969 304.511719 218.765625 303.28125 223.535156 301.730469 C 228.304688 300.179688 232.953125 298.328125 237.484375 296.171875 C 242.011719 294.019531 246.382812 291.578125 250.59375 288.855469 L 264.605469 308.132812 L 261.972656 310.042969 C 261.621094 310.296875 261.300781 310.582031 261.007812 310.902344 C 260.710938 311.21875 260.453125 311.5625 260.226562 311.933594 C 260 312.300781 259.8125 312.691406 259.660156 313.097656 C 259.511719 313.503906 259.402344 313.921875 259.335938 314.347656 C 259.269531 314.777344 259.246094 315.207031 259.261719 315.640625 C 259.28125 316.070312 259.339844 316.5 259.441406 316.921875 C 259.542969 317.339844 259.6875 317.746094 259.867188 318.140625 C 260.050781 318.535156 260.269531 318.90625 260.527344 319.253906 C 261.148438 320.105469 261.925781 320.769531 262.867188 321.242188 C 263.804688 321.71875 264.800781 321.957031 265.855469 321.953125 C 267.285156 321.957031 268.578125 321.542969 269.738281 320.703125 L 277.632812 314.976562 L 285.527344 309.320312 C 285.894531 309.074219 286.238281 308.792969 286.550781 308.480469 C 286.863281 308.167969 287.144531 307.824219 287.386719 307.457031 C 287.632812 307.085938 287.835938 306.695312 288 306.28125 C 288.167969 305.871094 288.289062 305.449219 288.367188 305.011719 C 288.449219 304.574219 288.484375 304.136719 288.472656 303.691406 C 288.464844 303.25 288.410156 302.8125 288.3125 302.378906 C 288.214844 301.945312 288.074219 301.527344 287.890625 301.125 C 287.710938 300.71875 287.488281 300.335938 287.230469 299.976562 C 286.96875 299.617188 286.675781 299.289062 286.351562 298.988281 C 286.023438 298.6875 285.671875 298.425781 285.292969 298.195312 C 284.914062 297.964844 284.511719 297.777344 284.09375 297.628906 C 283.679688 297.480469 283.25 297.375 282.808594 297.316406 C 282.371094 297.253906 281.929688 297.234375 281.488281 297.261719 C 281.046875 297.289062 280.609375 297.363281 280.183594 297.476562 C 279.753906 297.59375 279.34375 297.75 278.945312 297.949219 C 278.550781 298.148438 278.175781 298.382812 277.828125 298.660156 L 275.261719 300.566406 L 261.183594 281.089844 C 265.074219 277.925781 268.742188 274.527344 272.1875 270.886719 C 275.636719 267.25 278.832031 263.402344 281.78125 259.347656 C 284.730469 255.292969 287.402344 251.066406 289.800781 246.667969 C 292.203125 242.265625 294.308594 237.726562 296.117188 233.054688 L 319.078125 240.425781 L 317.761719 243.515625 C 317.628906 243.929688 317.539062 244.351562 317.488281 244.78125 C 317.441406 245.210938 317.433594 245.644531 317.46875 246.074219 C 317.503906 246.507812 317.582031 246.929688 317.699219 247.347656 C 317.820312 247.765625 317.980469 248.164062 318.179688 248.550781 C 318.378906 248.9375 318.613281 249.296875 318.882812 249.636719 C 319.152344 249.976562 319.453125 250.285156 319.785156 250.566406 C 320.117188 250.84375 320.472656 251.089844 320.851562 251.296875 C 321.230469 251.507812 321.625 251.675781 322.039062 251.808594 C 322.679688 252.019531 323.339844 252.128906 324.011719 252.136719 C 324.734375 252.171875 325.441406 252.089844 326.136719 251.894531 C 326.832031 251.695312 327.476562 251.390625 328.070312 250.980469 C 328.664062 250.570312 329.179688 250.074219 329.609375 249.496094 C 330.042969 248.917969 330.367188 248.285156 330.59375 247.597656 L 333.550781 238.316406 L 336.578125 229.171875 C 336.710938 228.757812 336.804688 228.339844 336.855469 227.90625 C 336.902344 227.476562 336.910156 227.046875 336.878906 226.613281 C 336.84375 226.183594 336.765625 225.757812 336.648438 225.339844 C 336.53125 224.921875 336.371094 224.523438 336.175781 224.136719 C 335.976562 223.75 335.746094 223.386719 335.476562 223.046875 C 335.207031 222.707031 334.910156 222.394531 334.578125 222.113281 C 334.25 221.832031 333.894531 221.585938 333.519531 221.375 C 333.140625 221.164062 332.746094 220.992188 332.332031 220.855469 C 331.921875 220.722656 331.5 220.632812 331.070312 220.582031 C 330.636719 220.53125 330.207031 220.519531 329.773438 220.554688 C 329.34375 220.589844 328.917969 220.664062 328.5 220.78125 C 328.085938 220.898438 327.683594 221.054688 327.296875 221.253906 C 326.910156 221.449219 326.546875 221.683594 326.207031 221.949219 C 325.867188 222.21875 325.554688 222.515625 325.273438 222.847656 C 324.992188 223.175781 324.746094 223.527344 324.53125 223.90625 C 324.320312 224.285156 324.148438 224.679688 324.011719 225.09375 L 323.027344 228.117188 L 300.394531 220.75 C 301.675781 215.917969 302.640625 211.023438 303.289062 206.070312 C 303.9375 201.113281 304.257812 196.136719 304.257812 191.136719 C 304.257812 186.140625 303.9375 181.164062 303.289062 176.207031 C 302.640625 171.25 301.675781 166.359375 300.394531 161.527344 L 323.027344 154.15625 L 324.011719 157.183594 C 324.234375 157.871094 324.5625 158.503906 324.996094 159.082031 C 325.425781 159.664062 325.941406 160.15625 326.535156 160.570312 C 327.128906 160.980469 327.773438 161.28125 328.46875 161.480469 C 329.164062 161.679688 329.871094 161.761719 330.59375 161.726562 C 331.273438 161.742188 331.929688 161.632812 332.566406 161.394531 C 332.980469 161.265625 333.375 161.09375 333.753906 160.886719 C 334.132812 160.675781 334.488281 160.433594 334.820312 160.152344 C 335.152344 159.875 335.453125 159.5625 335.722656 159.226562 C 335.992188 158.886719 336.226562 158.523438 336.425781 158.140625 C 336.625 157.753906 336.785156 157.351562 336.902344 156.9375 C 337.023438 156.519531 337.101562 156.09375 337.136719 155.664062 C 337.171875 155.230469 337.164062 154.800781 337.117188 154.371094 C 337.066406 153.9375 336.976562 153.515625 336.84375 153.105469 L 333.816406 143.957031 L 330.855469 134.679688 C 330.738281 134.25 330.582031 133.835938 330.382812 133.4375 C 330.183594 133.039062 329.949219 132.664062 329.675781 132.308594 C 329.40625 131.957031 329.101562 131.632812 328.765625 131.34375 C 328.429688 131.050781 328.066406 130.792969 327.683594 130.570312 C 327.296875 130.347656 326.890625 130.167969 326.46875 130.027344 C 326.046875 129.882812 325.613281 129.785156 325.171875 129.726562 C 324.730469 129.671875 324.289062 129.65625 323.84375 129.6875 C 323.398438 129.71875 322.960938 129.792969 322.53125 129.910156 C 322.101562 130.027344 321.6875 130.183594 321.289062 130.382812 C 320.890625 130.582031 320.515625 130.816406 320.164062 131.085938 C 319.808594 131.359375 319.488281 131.664062 319.195312 132 C 318.902344 132.335938 318.644531 132.695312 318.425781 133.082031 C 318.203125 133.46875 318.019531 133.875 317.878906 134.296875 C 317.738281 134.71875 317.636719 135.152344 317.582031 135.59375 C 317.523438 136.035156 317.511719 136.476562 317.542969 136.921875 C 317.574219 137.367188 317.648438 137.804688 317.761719 138.234375 L 318.816406 141.324219 L 296.117188 148.695312 C 294.300781 144.023438 292.191406 139.488281 289.789062 135.089844 C 287.386719 130.691406 284.710938 126.464844 281.765625 122.414062 C 278.816406 118.359375 275.621094 114.511719 272.175781 110.871094 C 268.730469 107.230469 265.066406 103.828125 261.183594 100.660156 L 275.261719 81.316406 L 277.828125 83.222656 C 278.96875 84.046875 280.238281 84.464844 281.644531 84.472656 C 282.710938 84.488281 283.71875 84.253906 284.667969 83.777344 C 285.621094 83.304688 286.410156 82.636719 287.039062 81.773438 C 287.304688 81.421875 287.53125 81.046875 287.71875 80.644531 C 287.90625 80.246094 288.054688 79.832031 288.160156 79.402344 C 288.265625 78.972656 288.328125 78.539062 288.34375 78.097656 C 288.363281 77.65625 288.335938 77.21875 288.265625 76.78125 C 288.195312 76.347656 288.082031 75.921875 287.925781 75.507812 C 287.769531 75.09375 287.574219 74.703125 287.339844 74.328125 C 287.101562 73.953125 286.832031 73.609375 286.527344 73.289062 C 286.222656 72.96875 285.890625 72.683594 285.527344 72.429688 L 277.632812 66.707031 L 269.738281 60.980469 C 269.386719 60.726562 269.015625 60.507812 268.621094 60.328125 C 268.230469 60.148438 267.824219 60.003906 267.402344 59.90625 C 266.980469 59.804688 266.554688 59.742188 266.125 59.726562 C 265.691406 59.710938 265.261719 59.734375 264.832031 59.800781 C 264.40625 59.871094 263.988281 59.976562 263.582031 60.128906 C 263.179688 60.277344 262.789062 60.464844 262.421875 60.691406 C 262.050781 60.914062 261.707031 61.175781 261.390625 61.46875 C 261.074219 61.761719 260.785156 62.082031 260.53125 62.433594 C 260.277344 62.78125 260.058594 63.152344 259.878906 63.546875 C 259.695312 63.941406 259.554688 64.347656 259.453125 64.765625 C 259.351562 65.1875 259.289062 65.613281 259.273438 66.046875 C 259.253906 66.480469 259.28125 66.910156 259.347656 67.335938 C 259.414062 67.761719 259.523438 68.179688 259.671875 68.585938 C 259.820312 68.992188 260.007812 69.378906 260.234375 69.75 C 260.457031 70.121094 260.71875 70.464844 261.011719 70.78125 C 261.304688 71.101562 261.625 71.386719 261.972656 71.640625 L 264.605469 73.550781 L 250.59375 92.828125 C 246.382812 90.105469 242.011719 87.667969 237.484375 85.515625 C 232.957031 83.367188 228.304688 81.515625 223.535156 79.972656 C 218.765625 78.429688 213.914062 77.203125 208.984375 76.292969 C 204.054688 75.382812 199.085938 74.796875 194.078125 74.535156 L 194.078125 50.652344 L 197.300781 50.652344 C 197.734375 50.652344 198.164062 50.609375 198.585938 50.523438 C 199.007812 50.441406 199.421875 50.316406 199.820312 50.148438 C 200.21875 49.984375 200.597656 49.78125 200.957031 49.542969 C 201.316406 49.300781 201.648438 49.027344 201.953125 48.722656 C 202.261719 48.417969 202.53125 48.085938 202.773438 47.726562 C 203.011719 47.367188 203.214844 46.988281 203.378906 46.589844 C 203.546875 46.191406 203.671875 45.777344 203.753906 45.355469 C 203.839844 44.929688 203.882812 44.503906 203.882812 44.070312 C 203.882812 43.636719 203.839844 43.210938 203.753906 42.785156 C 203.671875 42.363281 203.546875 41.953125 203.378906 41.550781 C 203.214844 41.152344 203.011719 40.773438 202.773438 40.414062 C 202.53125 40.054688 202.261719 39.722656 201.953125 39.417969 C 201.648438 39.113281 201.316406 38.839844 200.957031 38.597656 C 200.597656 38.359375 200.21875 38.15625 199.820312 37.992188 C 199.421875 37.824219 199.007812 37.699219 198.585938 37.617188 C 198.164062 37.53125 197.734375 37.492188 197.300781 37.492188 L 177.566406 37.492188 C 177.132812 37.492188 176.707031 37.53125 176.28125 37.617188 C 175.859375 37.699219 175.445312 37.824219 175.046875 37.992188 C 174.648438 38.15625 174.269531 38.359375 173.910156 38.597656 C 173.550781 38.839844 173.21875 39.113281 172.914062 39.417969 C 172.609375 39.722656 172.335938 40.054688 172.09375 40.414062 C 171.855469 40.773438 171.652344 41.152344 171.488281 41.550781 C 171.324219 41.953125 171.199219 42.363281 171.113281 42.785156 C 171.027344 43.210938 170.988281 43.636719 170.988281 44.070312 C 170.988281 44.503906 171.027344 44.929688 171.113281 45.355469 C 171.199219 45.777344 171.324219 46.191406 171.488281 46.589844 C 171.652344 46.988281 171.855469 47.367188 172.09375 47.726562 C 172.335938 48.085938 172.609375 48.417969 172.914062 48.722656 C 173.21875 49.027344 173.550781 49.300781 173.910156 49.542969 C 174.269531 49.78125 174.648438 49.984375 175.046875 50.148438 C 175.445312 50.316406 175.859375 50.441406 176.28125 50.523438 C 176.707031 50.609375 177.132812 50.652344 177.566406 50.652344 L 180.921875 50.652344 L 180.921875 74.535156 C 175.914062 74.808594 170.945312 75.402344 166.015625 76.320312 C 161.082031 77.238281 156.234375 78.472656 151.464844 80.019531 C 146.695312 81.570312 142.046875 83.421875 137.515625 85.578125 C 132.988281 87.730469 128.617188 90.171875 124.40625 92.894531 L 110.394531 73.617188 L 113.027344 71.707031 C 113.375 71.453125 113.695312 71.164062 113.988281 70.847656 C 114.28125 70.527344 114.542969 70.183594 114.765625 69.816406 C 114.992188 69.445312 115.179688 69.058594 115.328125 68.652344 C 115.476562 68.246094 115.585938 67.828125 115.652344 67.402344 C 115.71875 66.972656 115.746094 66.542969 115.726562 66.113281 C 115.710938 65.679688 115.648438 65.253906 115.546875 64.832031 C 115.445312 64.410156 115.304688 64.003906 115.121094 63.613281 C 114.941406 63.21875 114.722656 62.847656 114.46875 62.5 C 114.214844 62.148438 113.925781 61.828125 113.609375 61.535156 C 113.292969 61.242188 112.949219 60.980469 112.578125 60.753906 C 112.210938 60.53125 111.820312 60.34375 111.417969 60.191406 C 111.011719 60.042969 110.59375 59.933594 110.167969 59.867188 C 109.738281 59.800781 109.308594 59.773438 108.875 59.792969 C 108.445312 59.808594 108.019531 59.867188 107.597656 59.96875 C 107.175781 60.070312 106.769531 60.210938 106.378906 60.394531 C 105.984375 60.574219 105.613281 60.792969 105.261719 61.046875 L 97.367188 66.773438 L 89.472656 72.429688 C 88.910156 72.839844 88.421875 73.324219 88.011719 73.886719 C 87.601562 74.449219 87.289062 75.0625 87.074219 75.726562 C 86.859375 76.386719 86.753906 77.066406 86.753906 77.761719 C 86.753906 78.460938 86.859375 79.136719 87.078125 79.800781 C 87.292969 80.460938 87.605469 81.074219 88.015625 81.636719 C 88.425781 82.199219 88.914062 82.6875 89.476562 83.09375 C 90.039062 83.5 90.65625 83.8125 91.316406 84.023438 C 91.980469 84.238281 92.660156 84.34375 93.355469 84.339844 C 94.761719 84.332031 96.03125 83.914062 97.171875 83.089844 L 99.738281 81.183594 L 113.816406 100.527344 C 109.925781 103.691406 106.257812 107.09375 102.8125 110.730469 C 99.363281 114.371094 96.167969 118.214844 93.21875 122.269531 C 90.269531 126.324219 87.597656 130.550781 85.199219 134.953125 C 82.796875 139.351562 80.691406 143.890625 78.882812 148.5625 L 55.921875 141.324219 L 57.238281 138.234375 C 57.371094 137.820312 57.460938 137.398438 57.511719 136.96875 C 57.5625 136.539062 57.574219 136.105469 57.539062 135.671875 C 57.503906 135.242188 57.429688 134.816406 57.308594 134.398438 C 57.191406 133.980469 57.035156 133.578125 56.835938 133.195312 C 56.640625 132.808594 56.40625 132.445312 56.140625 132.101562 C 55.871094 131.761719 55.570312 131.453125 55.242188 131.171875 C 54.910156 130.886719 54.558594 130.640625 54.179688 130.429688 C 53.800781 130.21875 53.40625 130.046875 52.992188 129.910156 C 52.582031 129.777344 52.160156 129.683594 51.726562 129.632812 C 51.296875 129.582031 50.867188 129.574219 50.433594 129.609375 C 50 129.644531 49.578125 129.71875 49.160156 129.835938 C 48.742188 129.953125 48.339844 130.113281 47.953125 130.308594 C 47.566406 130.507812 47.203125 130.738281 46.863281 131.007812 C 46.523438 131.277344 46.210938 131.574219 45.929688 131.90625 C 45.648438 132.234375 45.402344 132.589844 45.191406 132.96875 C 44.976562 133.347656 44.804688 133.742188 44.671875 134.152344 L 41.710938 143.433594 L 38.683594 152.578125 C 38.535156 152.992188 38.425781 153.414062 38.359375 153.847656 C 38.292969 154.28125 38.273438 154.71875 38.292969 155.15625 C 38.316406 155.59375 38.378906 156.027344 38.488281 156.449219 C 38.597656 156.875 38.746094 157.285156 38.9375 157.683594 C 39.125 158.078125 39.351562 158.449219 39.617188 158.800781 C 39.882812 159.148438 40.179688 159.46875 40.507812 159.761719 C 40.835938 160.050781 41.191406 160.308594 41.570312 160.527344 C 41.949219 160.746094 42.347656 160.925781 42.761719 161.066406 C 43.398438 161.304688 44.058594 161.414062 44.738281 161.394531 C 45.457031 161.429688 46.167969 161.351562 46.859375 161.152344 C 47.554688 160.953125 48.199219 160.648438 48.792969 160.238281 C 49.390625 159.828125 49.902344 159.335938 50.332031 158.753906 C 50.765625 158.175781 51.09375 157.542969 51.316406 156.855469 L 52.300781 153.828125 L 74.933594 161.199219 C 73.652344 166.027344 72.6875 170.921875 72.039062 175.878906 C 71.394531 180.835938 71.070312 185.8125 71.070312 190.808594 C 71.070312 195.808594 71.394531 200.785156 72.039062 205.742188 C 72.6875 210.695312 73.652344 215.589844 74.933594 220.421875 L 52.300781 227.789062 Z M 126.710938 107.242188 C 128.902344 105.644531 131.148438 104.136719 133.457031 102.71875 C 135.765625 101.300781 138.128906 99.972656 140.542969 98.738281 C 142.953125 97.507812 145.414062 96.371094 147.914062 95.332031 C 150.417969 94.292969 152.957031 93.351562 155.535156 92.511719 C 158.109375 91.675781 160.714844 90.9375 163.351562 90.304688 C 165.984375 89.667969 168.640625 89.140625 171.316406 88.714844 C 173.992188 88.289062 176.683594 87.972656 179.382812 87.757812 C 182.085938 87.546875 184.789062 87.4375 187.5 87.4375 C 190.210938 87.4375 192.914062 87.546875 195.617188 87.757812 C 198.316406 87.972656 201.007812 88.289062 203.683594 88.714844 C 206.359375 89.140625 209.015625 89.667969 211.648438 90.304688 C 214.285156 90.9375 216.890625 91.675781 219.464844 92.515625 C 222.042969 93.351562 224.582031 94.292969 227.085938 95.332031 C 229.585938 96.371094 232.046875 97.507812 234.457031 98.738281 C 236.871094 99.972656 239.234375 101.300781 241.542969 102.71875 C 243.851562 104.136719 246.097656 105.644531 248.289062 107.242188 C 249.933594 108.433594 251.539062 109.671875 253.113281 110.960938 C 254.683594 112.246094 256.214844 113.578125 257.707031 114.957031 C 259.199219 116.335938 260.648438 117.753906 262.058594 119.21875 C 263.464844 120.679688 264.828125 122.183594 266.148438 123.726562 C 267.46875 125.269531 268.742188 126.851562 269.96875 128.46875 C 271.195312 130.089844 272.375 131.742188 273.503906 133.429688 C 274.632812 135.117188 275.710938 136.839844 276.738281 138.589844 C 277.765625 140.34375 278.742188 142.121094 279.664062 143.929688 C 280.585938 145.742188 281.457031 147.574219 282.269531 149.4375 C 283.085938 151.296875 283.84375 153.179688 284.546875 155.085938 C 285.25 156.988281 285.898438 158.914062 286.488281 160.859375 C 287.078125 162.800781 287.609375 164.761719 288.082031 166.734375 C 288.558594 168.710938 288.972656 170.695312 289.332031 172.695312 C 289.6875 174.695312 289.988281 176.703125 290.226562 178.71875 C 290.464844 180.738281 290.644531 182.757812 290.765625 184.789062 C 290.882812 186.816406 290.941406 188.84375 290.941406 190.875 C 290.941406 192.90625 290.882812 194.933594 290.765625 196.960938 C 290.644531 198.992188 290.464844 201.011719 290.226562 203.03125 C 289.988281 205.046875 289.6875 207.054688 289.332031 209.054688 C 288.972656 211.054688 288.558594 213.039062 288.082031 215.015625 C 287.609375 216.988281 287.078125 218.949219 286.488281 220.890625 C 285.898438 222.835938 285.25 224.761719 284.546875 226.664062 C 283.84375 228.570312 283.085938 230.453125 282.269531 232.3125 C 281.457031 234.175781 280.585938 236.007812 279.664062 237.820312 C 278.742188 239.628906 277.765625 241.410156 276.738281 243.160156 C 275.710938 244.910156 274.632812 246.632812 273.503906 248.320312 C 272.375 250.007812 271.195312 251.660156 269.96875 253.28125 C 268.742188 254.898438 267.46875 256.480469 266.148438 258.023438 C 264.828125 259.566406 263.464844 261.070312 262.058594 262.53125 C 260.648438 263.996094 259.199219 265.414062 257.707031 266.792969 C 256.214844 268.171875 254.683594 269.503906 253.113281 270.789062 C 251.539062 272.078125 249.933594 273.316406 248.289062 274.507812 C 246.097656 276.105469 243.851562 277.613281 241.542969 279.03125 C 239.234375 280.449219 236.871094 281.777344 234.457031 283.011719 C 232.046875 284.242188 229.585938 285.378906 227.085938 286.417969 C 224.582031 287.457031 222.042969 288.398438 219.464844 289.238281 C 216.890625 290.074219 214.285156 290.8125 211.648438 291.445312 C 209.015625 292.082031 206.359375 292.609375 203.683594 293.035156 C 201.007812 293.460938 198.316406 293.777344 195.617188 293.992188 C 192.914062 294.207031 190.210938 294.3125 187.5 294.3125 C 184.789062 294.3125 182.085938 294.207031 179.382812 293.992188 C 176.683594 293.777344 173.992188 293.460938 171.316406 293.035156 C 168.640625 292.609375 165.984375 292.082031 163.351562 291.445312 C 160.714844 290.8125 158.109375 290.074219 155.535156 289.238281 C 152.957031 288.398438 150.417969 287.457031 147.914062 286.417969 C 145.414062 285.378906 142.953125 284.242188 140.542969 283.011719 C 138.128906 281.777344 135.765625 280.449219 133.457031 279.03125 C 131.148438 277.613281 128.902344 276.105469 126.710938 274.507812 C 125.066406 273.316406 123.460938 272.078125 121.886719 270.789062 C 120.316406 269.503906 118.785156 268.171875 117.292969 266.792969 C 115.800781 265.414062 114.351562 263.996094 112.941406 262.53125 C 111.535156 261.070312 110.171875 259.566406 108.851562 258.023438 C 107.53125 256.480469 106.257812 254.898438 105.03125 253.28125 C 103.804688 251.660156 102.625 250.007812 101.496094 248.320312 C 100.367188 246.632812 99.289062 244.910156 98.261719 243.160156 C 97.234375 241.410156 96.257812 239.628906 95.335938 237.820312 C 94.414062 236.007812 93.542969 234.175781 92.730469 232.3125 C 91.914062 230.453125 91.15625 228.570312 90.453125 226.664062 C 89.75 224.761719 89.101562 222.835938 88.511719 220.890625 C 87.921875 218.949219 87.390625 216.988281 86.917969 215.015625 C 86.441406 213.039062 86.027344 211.054688 85.667969 209.054688 C 85.3125 207.054688 85.011719 205.046875 84.773438 203.03125 C 84.535156 201.011719 84.355469 198.992188 84.234375 196.960938 C 84.117188 194.933594 84.054688 192.90625 84.054688 190.875 C 84.054688 188.84375 84.117188 186.816406 84.234375 184.789062 C 84.355469 182.757812 84.535156 180.738281 84.773438 178.71875 C 85.011719 176.703125 85.3125 174.695312 85.667969 172.695312 C 86.027344 170.695312 86.441406 168.710938 86.917969 166.734375 C 87.390625 164.761719 87.921875 162.800781 88.511719 160.859375 C 89.101562 158.914062 89.75 156.988281 90.453125 155.085938 C 91.15625 153.179688 91.914062 151.296875 92.730469 149.4375 C 93.542969 147.574219 94.414062 145.742188 95.335938 143.929688 C 96.257812 142.121094 97.234375 140.34375 98.261719 138.589844 C 99.289062 136.839844 100.367188 135.117188 101.496094 133.429688 C 102.625 131.742188 103.804688 130.089844 105.03125 128.46875 C 106.257812 126.851562 107.53125 125.269531 108.851562 123.726562 C 110.171875 122.183594 111.535156 120.679688 112.941406 119.21875 C 114.351562 117.753906 115.800781 116.335938 117.292969 114.957031 C 118.785156 113.578125 120.316406 112.246094 121.886719 110.960938 C 123.460938 109.671875 125.066406 108.433594 126.710938 107.242188 Z M 126.710938 107.242188 " fill-opacity="1" fill-rule="nonzero"/></g><path fill="#000000" d="M 162.699219 176.925781 C 163.726562 176.925781 164.753906 176.875 165.78125 176.773438 C 166.804688 176.671875 167.824219 176.519531 168.835938 176.320312 C 169.847656 176.117188 170.84375 175.867188 171.828125 175.570312 C 172.816406 175.269531 173.785156 174.921875 174.738281 174.527344 C 175.6875 174.132812 176.617188 173.695312 177.527344 173.207031 C 178.4375 172.722656 179.320312 172.191406 180.175781 171.621094 C 181.03125 171.046875 181.859375 170.433594 182.65625 169.777344 C 183.449219 169.125 184.214844 168.433594 184.941406 167.703125 C 185.671875 166.976562 186.359375 166.210938 187.015625 165.414062 C 187.667969 164.617188 188.28125 163.792969 188.851562 162.933594 C 189.425781 162.078125 189.953125 161.195312 190.4375 160.285156 C 190.921875 159.375 191.363281 158.445312 191.757812 157.492188 C 192.152344 156.539062 192.496094 155.570312 192.796875 154.585938 C 193.09375 153.597656 193.34375 152.601562 193.542969 151.589844 C 193.746094 150.578125 193.894531 149.558594 193.996094 148.535156 C 194.09375 147.507812 194.144531 146.480469 194.144531 145.449219 C 194.144531 144.417969 194.09375 143.390625 193.992188 142.367188 C 193.890625 141.339844 193.738281 140.320312 193.535156 139.3125 C 193.332031 138.300781 193.082031 137.300781 192.78125 136.316406 C 192.484375 135.332031 192.136719 134.363281 191.742188 133.410156 C 191.34375 132.457031 190.90625 131.527344 190.417969 130.621094 C 189.929688 129.710938 189.402344 128.828125 188.828125 127.972656 C 188.253906 127.117188 187.640625 126.289062 186.988281 125.492188 C 186.332031 124.699219 185.640625 123.933594 184.910156 123.207031 C 184.179688 122.480469 183.417969 121.789062 182.621094 121.136719 C 181.824219 120.484375 180.996094 119.871094 180.140625 119.300781 C 179.28125 118.726562 178.398438 118.199219 177.488281 117.714844 C 176.578125 117.230469 175.648438 116.789062 174.695312 116.398438 C 173.742188 116.003906 172.773438 115.660156 171.789062 115.359375 C 170.800781 115.0625 169.804688 114.8125 168.792969 114.613281 C 167.78125 114.414062 166.761719 114.265625 165.738281 114.164062 C 164.710938 114.066406 163.683594 114.015625 162.652344 114.019531 C 161.621094 114.019531 160.59375 114.070312 159.570312 114.175781 C 158.542969 114.277344 157.527344 114.429688 156.515625 114.632812 C 155.507812 114.835938 154.507812 115.085938 153.523438 115.386719 C 152.539062 115.6875 151.570312 116.035156 150.617188 116.429688 C 149.664062 116.828125 148.738281 117.269531 147.828125 117.757812 C 146.921875 118.242188 146.039062 118.773438 145.183594 119.347656 C 144.328125 119.921875 143.5 120.535156 142.707031 121.191406 C 141.910156 121.847656 141.148438 122.539062 140.421875 123.269531 C 139.695312 124 139.003906 124.761719 138.351562 125.5625 C 137.699219 126.359375 137.089844 127.1875 136.519531 128.046875 C 135.945312 128.902344 135.417969 129.785156 134.933594 130.695312 C 134.453125 131.605469 134.011719 132.539062 133.621094 133.492188 C 133.226562 134.445312 132.882812 135.414062 132.585938 136.398438 C 132.289062 137.386719 132.039062 138.386719 131.84375 139.398438 C 131.644531 140.410156 131.492188 141.425781 131.394531 142.453125 C 131.296875 143.480469 131.246094 144.507812 131.25 145.539062 C 131.253906 146.566406 131.304688 147.59375 131.40625 148.617188 C 131.511719 149.640625 131.664062 150.65625 131.867188 151.664062 C 132.066406 152.671875 132.320312 153.667969 132.621094 154.652344 C 132.917969 155.636719 133.265625 156.605469 133.664062 157.554688 C 134.058594 158.503906 134.5 159.433594 134.984375 160.339844 C 135.472656 161.246094 136 162.125 136.574219 162.980469 C 137.144531 163.835938 137.757812 164.660156 138.410156 165.453125 C 139.066406 166.25 139.757812 167.007812 140.484375 167.734375 C 141.210938 168.460938 141.972656 169.152344 142.769531 169.804688 C 143.566406 170.457031 144.390625 171.066406 145.246094 171.636719 C 146.101562 172.207031 146.984375 172.734375 147.890625 173.21875 C 148.796875 173.703125 149.726562 174.144531 150.679688 174.535156 C 151.628906 174.929688 152.597656 175.277344 153.582031 175.574219 C 154.566406 175.871094 155.5625 176.121094 156.570312 176.320312 C 157.578125 176.523438 158.59375 176.671875 159.617188 176.773438 C 160.644531 176.875 161.667969 176.925781 162.699219 176.925781 Z M 162.699219 127.246094 C 163.296875 127.246094 163.894531 127.273438 164.488281 127.332031 C 165.085938 127.390625 165.679688 127.480469 166.265625 127.597656 C 166.851562 127.710938 167.433594 127.859375 168.007812 128.03125 C 168.578125 128.207031 169.144531 128.40625 169.695312 128.636719 C 170.25 128.867188 170.789062 129.121094 171.320312 129.40625 C 171.847656 129.6875 172.359375 129.996094 172.859375 130.328125 C 173.355469 130.660156 173.835938 131.015625 174.300781 131.398438 C 174.761719 131.777344 175.207031 132.179688 175.628906 132.601562 C 176.054688 133.027344 176.457031 133.46875 176.835938 133.933594 C 177.214844 134.394531 177.570312 134.875 177.90625 135.375 C 178.238281 135.871094 178.542969 136.386719 178.828125 136.914062 C 179.109375 137.441406 179.367188 137.984375 179.59375 138.535156 C 179.824219 139.089844 180.027344 139.652344 180.199219 140.226562 C 180.375 140.800781 180.519531 141.382812 180.636719 141.96875 C 180.753906 142.554688 180.839844 143.148438 180.898438 143.746094 C 180.957031 144.339844 180.988281 144.9375 180.988281 145.539062 C 180.988281 146.136719 180.957031 146.734375 180.898438 147.332031 C 180.839844 147.925781 180.753906 148.519531 180.636719 149.105469 C 180.519531 149.695312 180.375 150.273438 180.199219 150.847656 C 180.027344 151.421875 179.824219 151.984375 179.59375 152.539062 C 179.367188 153.089844 179.109375 153.632812 178.828125 154.160156 C 178.542969 154.6875 178.238281 155.203125 177.90625 155.699219 C 177.570312 156.199219 177.214844 156.679688 176.835938 157.140625 C 176.457031 157.605469 176.054688 158.050781 175.628906 158.472656 C 175.207031 158.894531 174.761719 159.296875 174.300781 159.679688 C 173.835938 160.058594 173.355469 160.414062 172.859375 160.746094 C 172.359375 161.082031 171.847656 161.386719 171.320312 161.671875 C 170.789062 161.953125 170.25 162.207031 169.695312 162.4375 C 169.144531 162.667969 168.578125 162.867188 168.007812 163.042969 C 167.433594 163.214844 166.851562 163.363281 166.265625 163.480469 C 165.679688 163.597656 165.085938 163.683594 164.488281 163.742188 C 163.894531 163.800781 163.296875 163.832031 162.699219 163.832031 C 162.097656 163.832031 161.5 163.800781 160.90625 163.742188 C 160.308594 163.683594 159.714844 163.597656 159.128906 163.480469 C 158.542969 163.363281 157.960938 163.214844 157.386719 163.042969 C 156.816406 162.867188 156.25 162.667969 155.699219 162.4375 C 155.144531 162.207031 154.605469 161.953125 154.074219 161.671875 C 153.546875 161.386719 153.035156 161.082031 152.535156 160.746094 C 152.039062 160.414062 151.558594 160.058594 151.09375 159.679688 C 150.632812 159.296875 150.1875 158.894531 149.765625 158.472656 C 149.339844 158.050781 148.9375 157.605469 148.558594 157.140625 C 148.179688 156.679688 147.824219 156.199219 147.488281 155.699219 C 147.15625 155.203125 146.851562 154.6875 146.566406 154.160156 C 146.285156 153.632812 146.03125 153.089844 145.800781 152.539062 C 145.570312 151.984375 145.371094 151.421875 145.195312 150.847656 C 145.023438 150.273438 144.875 149.695312 144.757812 149.105469 C 144.640625 148.519531 144.554688 147.925781 144.496094 147.332031 C 144.4375 146.734375 144.40625 146.136719 144.40625 145.539062 C 144.40625 144.9375 144.4375 144.339844 144.496094 143.746094 C 144.554688 143.148438 144.640625 142.554688 144.757812 141.96875 C 144.875 141.382812 145.023438 140.800781 145.195312 140.226562 C 145.371094 139.652344 145.570312 139.089844 145.800781 138.535156 C 146.03125 137.984375 146.285156 137.441406 146.566406 136.914062 C 146.851562 136.386719 147.15625 135.871094 147.488281 135.375 C 147.824219 134.875 148.179688 134.394531 148.558594 133.933594 C 148.9375 133.46875 149.339844 133.027344 149.765625 132.601562 C 150.1875 132.179688 150.632812 131.777344 151.09375 131.398438 C 151.558594 131.015625 152.039062 130.660156 152.535156 130.328125 C 153.035156 129.996094 153.546875 129.6875 154.074219 129.40625 C 154.605469 129.121094 155.144531 128.867188 155.699219 128.636719 C 156.25 128.40625 156.816406 128.207031 157.386719 128.03125 C 157.960938 127.859375 158.542969 127.710938 159.128906 127.597656 C 159.714844 127.480469 160.308594 127.390625 160.90625 127.332031 C 161.5 127.273438 162.097656 127.246094 162.699219 127.246094 Z M 162.699219 127.246094 " fill-opacity="1" fill-rule="nonzero"/><path fill="#000000" d="M 217.828125 267.664062 C 218.859375 267.667969 219.886719 267.621094 220.914062 267.519531 C 221.9375 267.421875 222.957031 267.273438 223.96875 267.074219 C 224.980469 266.875 225.976562 266.625 226.964844 266.328125 C 227.949219 266.03125 228.921875 265.6875 229.875 265.292969 C 230.824219 264.902344 231.757812 264.464844 232.667969 263.980469 C 233.578125 263.496094 234.460938 262.96875 235.316406 262.398438 C 236.175781 261.828125 237.003906 261.214844 237.800781 260.5625 C 238.597656 259.910156 239.363281 259.21875 240.09375 258.492188 C 240.824219 257.765625 241.515625 257.003906 242.171875 256.207031 C 242.824219 255.414062 243.4375 254.585938 244.011719 253.730469 C 244.585938 252.875 245.117188 251.992188 245.605469 251.085938 C 246.09375 250.175781 246.535156 249.246094 246.929688 248.296875 C 247.324219 247.34375 247.671875 246.375 247.972656 245.390625 C 248.273438 244.402344 248.527344 243.40625 248.730469 242.394531 C 248.929688 241.382812 249.082031 240.367188 249.1875 239.339844 C 249.289062 238.316406 249.339844 237.289062 249.34375 236.257812 C 249.34375 235.226562 249.292969 234.199219 249.195312 233.171875 C 249.09375 232.144531 248.945312 231.128906 248.746094 230.117188 C 248.546875 229.105469 248.296875 228.105469 248 227.121094 C 247.703125 226.132812 247.355469 225.164062 246.964844 224.210938 C 246.570312 223.257812 246.132812 222.328125 245.644531 221.417969 C 245.160156 220.507812 244.632812 219.625 244.0625 218.769531 C 243.492188 217.910156 242.878906 217.082031 242.226562 216.285156 C 241.574219 215.488281 240.882812 214.726562 240.15625 213.996094 C 239.425781 213.265625 238.664062 212.574219 237.867188 211.917969 C 237.074219 211.265625 236.246094 210.648438 235.390625 210.078125 C 234.535156 209.503906 233.652344 208.972656 232.746094 208.488281 C 231.835938 208 230.90625 207.558594 229.953125 207.164062 C 229.003906 206.769531 228.035156 206.421875 227.046875 206.121094 C 226.0625 205.820312 225.066406 205.570312 224.054688 205.367188 C 223.042969 205.167969 222.027344 205.015625 221 204.914062 C 219.976562 204.8125 218.945312 204.761719 217.917969 204.757812 C 216.886719 204.757812 215.859375 204.808594 214.832031 204.910156 C 213.808594 205.007812 212.789062 205.160156 211.777344 205.359375 C 210.769531 205.558594 209.769531 205.808594 208.78125 206.109375 C 207.796875 206.40625 206.828125 206.753906 205.875 207.148438 C 204.921875 207.542969 203.992188 207.980469 203.082031 208.464844 C 202.175781 208.953125 201.292969 209.480469 200.433594 210.050781 C 199.578125 210.625 198.75 211.238281 197.953125 211.890625 C 197.15625 212.542969 196.394531 213.234375 195.664062 213.964844 C 194.9375 214.691406 194.246094 215.453125 193.589844 216.25 C 192.9375 217.046875 192.324219 217.875 191.75 218.730469 C 191.179688 219.589844 190.648438 220.472656 190.164062 221.378906 C 189.679688 222.289062 189.238281 223.21875 188.84375 224.171875 C 188.449219 225.121094 188.101562 226.09375 187.800781 227.078125 C 187.503906 228.066406 187.253906 229.0625 187.050781 230.074219 C 186.851562 231.085938 186.699219 232.101562 186.597656 233.128906 C 186.496094 234.152344 186.449219 235.183594 186.449219 236.210938 C 186.449219 237.242188 186.5 238.265625 186.605469 239.289062 C 186.707031 240.3125 186.859375 241.328125 187.0625 242.335938 C 187.261719 243.34375 187.511719 244.339844 187.8125 245.324219 C 188.113281 246.308594 188.457031 247.273438 188.851562 248.222656 C 189.246094 249.171875 189.683594 250.101562 190.171875 251.007812 C 190.65625 251.914062 191.183594 252.796875 191.753906 253.652344 C 192.324219 254.507812 192.9375 255.332031 193.585938 256.125 C 194.238281 256.921875 194.929688 257.683594 195.652344 258.410156 C 196.378906 259.140625 197.140625 259.828125 197.933594 260.484375 C 198.726562 261.136719 199.550781 261.75 200.40625 262.320312 C 201.257812 262.894531 202.136719 263.425781 203.042969 263.910156 C 203.949219 264.398438 204.875 264.839844 205.824219 265.234375 C 206.773438 265.632812 207.738281 265.980469 208.722656 266.28125 C 209.703125 266.582031 210.699219 266.835938 211.707031 267.039062 C 212.714844 267.242188 213.730469 267.398438 214.753906 267.503906 C 215.777344 267.605469 216.800781 267.660156 217.828125 267.664062 Z M 217.828125 217.984375 C 218.429688 217.984375 219.027344 218.011719 219.625 218.066406 C 220.222656 218.125 220.816406 218.210938 221.402344 218.324219 C 221.992188 218.441406 222.574219 218.585938 223.148438 218.757812 C 223.722656 218.929688 224.289062 219.128906 224.84375 219.355469 C 225.398438 219.585938 225.941406 219.839844 226.46875 220.121094 C 227 220.402344 227.515625 220.707031 228.015625 221.039062 C 228.515625 221.371094 228.996094 221.730469 229.460938 222.109375 C 229.925781 222.488281 230.371094 222.890625 230.796875 223.3125 C 231.222656 223.734375 231.625 224.179688 232.007812 224.640625 C 232.386719 225.105469 232.746094 225.585938 233.082031 226.082031 C 233.414062 226.582031 233.722656 227.09375 234.007812 227.625 C 234.292969 228.152344 234.546875 228.695312 234.78125 229.246094 C 235.011719 229.800781 235.210938 230.367188 235.386719 230.9375 C 235.5625 231.511719 235.710938 232.09375 235.828125 232.683594 C 235.945312 233.269531 236.035156 233.863281 236.09375 234.460938 C 236.152344 235.058594 236.183594 235.65625 236.183594 236.257812 C 236.183594 236.855469 236.15625 237.453125 236.097656 238.050781 C 236.039062 238.648438 235.953125 239.242188 235.835938 239.832031 C 235.71875 240.417969 235.574219 241 235.402344 241.574219 C 235.226562 242.148438 235.023438 242.714844 234.796875 243.269531 C 234.566406 243.824219 234.3125 244.363281 234.027344 244.894531 C 233.746094 245.421875 233.4375 245.9375 233.105469 246.4375 C 232.773438 246.9375 232.414062 247.417969 232.035156 247.882812 C 231.652344 248.34375 231.25 248.789062 230.828125 249.214844 C 230.402344 249.636719 229.960938 250.039062 229.496094 250.421875 C 229.03125 250.800781 228.550781 251.15625 228.050781 251.492188 C 227.550781 251.824219 227.039062 252.132812 226.507812 252.414062 C 225.980469 252.699219 225.4375 252.953125 224.882812 253.183594 C 224.328125 253.414062 223.765625 253.613281 223.191406 253.789062 C 222.617188 253.960938 222.035156 254.105469 221.445312 254.222656 C 220.859375 254.339844 220.265625 254.425781 219.667969 254.484375 C 219.070312 254.542969 218.472656 254.570312 217.871094 254.570312 C 217.273438 254.570312 216.675781 254.539062 216.078125 254.480469 C 215.480469 254.421875 214.886719 254.332031 214.300781 254.214844 C 213.710938 254.097656 213.128906 253.949219 212.558594 253.773438 C 211.984375 253.601562 211.417969 253.398438 210.863281 253.167969 C 210.3125 252.9375 209.769531 252.679688 209.242188 252.394531 C 208.714844 252.109375 208.199219 251.800781 207.703125 251.46875 C 207.203125 251.132812 206.722656 250.773438 206.261719 250.394531 C 205.796875 250.011719 205.355469 249.609375 204.929688 249.183594 C 204.507812 248.757812 204.105469 248.3125 203.726562 247.847656 C 203.347656 247.382812 202.992188 246.898438 202.660156 246.398438 C 202.328125 245.902344 202.023438 245.386719 201.742188 244.855469 C 201.457031 244.324219 201.203125 243.78125 200.976562 243.226562 C 200.75 242.671875 200.546875 242.109375 200.375 241.535156 C 200.203125 240.957031 200.058594 240.375 199.945312 239.789062 C 199.828125 239.199219 199.742188 238.605469 199.6875 238.007812 C 199.628906 237.410156 199.601562 236.8125 199.605469 236.210938 C 199.605469 235.617188 199.636719 235.019531 199.699219 234.429688 C 199.757812 233.835938 199.847656 233.246094 199.964844 232.660156 C 200.085938 232.078125 200.230469 231.5 200.40625 230.929688 C 200.578125 230.359375 200.78125 229.796875 201.011719 229.246094 C 201.238281 228.695312 201.496094 228.160156 201.777344 227.632812 C 202.058594 227.109375 202.363281 226.597656 202.695312 226.101562 C 203.027344 225.605469 203.382812 225.128906 203.761719 224.667969 C 204.140625 224.207031 204.539062 223.765625 204.960938 223.34375 C 205.382812 222.921875 205.824219 222.519531 206.285156 222.144531 C 206.746094 221.765625 207.222656 221.410156 207.71875 221.078125 C 208.214844 220.746094 208.726562 220.4375 209.25 220.15625 C 209.777344 219.875 210.316406 219.621094 210.863281 219.390625 C 211.414062 219.160156 211.976562 218.960938 212.546875 218.785156 C 213.117188 218.609375 213.695312 218.464844 214.277344 218.347656 C 214.863281 218.230469 215.453125 218.140625 216.042969 218.078125 C 216.636719 218.019531 217.234375 217.988281 217.828125 217.984375 Z M 217.828125 217.984375 " fill-opacity="1" fill-rule="nonzero"/><path fill="#000000" d="M 230 187.453125 C 230.703125 187.453125 231.402344 187.417969 232.105469 187.351562 C 232.804688 187.28125 233.496094 187.179688 234.1875 187.039062 C 234.875 186.902344 235.558594 186.734375 236.230469 186.527344 C 236.902344 186.324219 237.5625 186.085938 238.210938 185.816406 C 238.863281 185.550781 239.496094 185.25 240.117188 184.917969 C 240.734375 184.585938 241.339844 184.222656 241.921875 183.832031 C 242.507812 183.441406 243.070312 183.023438 243.613281 182.578125 C 244.15625 182.132812 244.675781 181.660156 245.171875 181.164062 C 245.671875 180.664062 246.140625 180.144531 246.585938 179.601562 C 247.03125 179.058594 247.449219 178.492188 247.839844 177.90625 C 248.230469 177.324219 248.589844 176.722656 248.921875 176.101562 C 249.253906 175.480469 249.550781 174.84375 249.820312 174.195312 C 250.089844 173.546875 250.324219 172.882812 250.527344 172.210938 C 250.730469 171.539062 250.902344 170.859375 251.039062 170.167969 C 251.175781 169.476562 251.277344 168.785156 251.347656 168.082031 C 251.414062 167.382812 251.449219 166.683594 251.445312 165.980469 C 251.445312 165.277344 251.410156 164.574219 251.339844 163.875 C 251.273438 163.175781 251.167969 162.480469 251.03125 161.792969 C 250.890625 161.101562 250.722656 160.421875 250.515625 159.75 C 250.3125 159.078125 250.074219 158.417969 249.804688 157.765625 C 249.535156 157.117188 249.234375 156.484375 248.902344 155.863281 C 248.570312 155.246094 248.207031 154.644531 247.816406 154.058594 C 247.425781 153.476562 247.003906 152.910156 246.558594 152.367188 C 246.113281 151.824219 245.640625 151.304688 245.140625 150.808594 C 244.644531 150.3125 244.125 149.84375 243.578125 149.398438 C 243.035156 148.953125 242.472656 148.535156 241.886719 148.144531 C 241.300781 147.757812 240.699219 147.394531 240.078125 147.066406 C 239.457031 146.734375 238.820312 146.4375 238.171875 146.167969 C 237.523438 145.902344 236.859375 145.664062 236.1875 145.460938 C 235.515625 145.257812 234.832031 145.089844 234.144531 144.953125 C 233.453125 144.820312 232.757812 144.71875 232.058594 144.648438 C 231.359375 144.582031 230.660156 144.550781 229.957031 144.550781 C 229.253906 144.550781 228.550781 144.585938 227.851562 144.65625 C 227.152344 144.730469 226.460938 144.832031 225.769531 144.972656 C 225.082031 145.109375 224.398438 145.28125 223.726562 145.488281 C 223.054688 145.695312 222.394531 145.933594 221.746094 146.203125 C 221.097656 146.472656 220.464844 146.773438 219.84375 147.105469 C 219.226562 147.441406 218.625 147.800781 218.042969 148.195312 C 217.457031 148.585938 216.894531 149.007812 216.351562 149.453125 C 215.808594 149.902344 215.292969 150.375 214.796875 150.871094 C 214.300781 151.371094 213.828125 151.890625 213.386719 152.4375 C 212.941406 152.980469 212.523438 153.546875 212.136719 154.132812 C 211.746094 154.71875 211.386719 155.320312 211.058594 155.941406 C 210.726562 156.5625 210.429688 157.199219 210.160156 157.847656 C 209.894531 158.5 209.660156 159.160156 209.457031 159.832031 C 209.257812 160.507812 209.085938 161.1875 208.953125 161.878906 C 208.816406 162.570312 208.714844 163.261719 208.648438 163.964844 C 208.582031 164.664062 208.550781 165.363281 208.550781 166.066406 C 208.554688 166.769531 208.589844 167.46875 208.660156 168.164062 C 208.734375 168.863281 208.835938 169.554688 208.976562 170.242188 C 209.113281 170.929688 209.285156 171.609375 209.492188 172.28125 C 209.695312 172.949219 209.933594 173.609375 210.203125 174.257812 C 210.472656 174.902344 210.773438 175.535156 211.105469 176.152344 C 211.4375 176.773438 211.800781 177.371094 212.191406 177.953125 C 212.582031 178.535156 213 179.097656 213.445312 179.640625 C 213.890625 180.179688 214.359375 180.699219 214.859375 181.195312 C 215.355469 181.6875 215.875 182.160156 216.417969 182.601562 C 216.957031 183.046875 217.523438 183.464844 218.105469 183.851562 C 218.6875 184.242188 219.289062 184.601562 219.90625 184.929688 C 220.527344 185.261719 221.160156 185.558594 221.808594 185.828125 C 222.457031 186.09375 223.113281 186.328125 223.785156 186.535156 C 224.457031 186.738281 225.136719 186.90625 225.824219 187.042969 C 226.511719 187.179688 227.203125 187.28125 227.902344 187.351562 C 228.597656 187.417969 229.300781 187.453125 230 187.453125 Z M 230 157.777344 C 230.542969 157.777344 231.082031 157.828125 231.617188 157.9375 C 232.152344 158.042969 232.667969 158.199219 233.171875 158.40625 C 233.675781 158.617188 234.152344 158.871094 234.605469 159.175781 C 235.058594 159.476562 235.476562 159.820312 235.863281 160.203125 C 236.246094 160.589844 236.589844 161.007812 236.890625 161.460938 C 237.195312 161.914062 237.449219 162.390625 237.660156 162.894531 C 237.867188 163.398438 238.023438 163.917969 238.128906 164.449219 C 238.238281 164.984375 238.289062 165.523438 238.289062 166.066406 C 238.289062 166.613281 238.238281 167.152344 238.128906 167.683594 C 238.023438 168.21875 237.867188 168.738281 237.660156 169.242188 C 237.449219 169.742188 237.195312 170.222656 236.890625 170.675781 C 236.589844 171.125 236.246094 171.546875 235.863281 171.929688 C 235.476562 172.316406 235.058594 172.660156 234.605469 172.960938 C 234.152344 173.265625 233.675781 173.519531 233.171875 173.726562 C 232.667969 173.9375 232.152344 174.09375 231.617188 174.199219 C 231.082031 174.304688 230.542969 174.359375 230 174.359375 C 229.457031 174.359375 228.917969 174.304688 228.382812 174.199219 C 227.847656 174.09375 227.332031 173.9375 226.828125 173.726562 C 226.324219 173.519531 225.847656 173.265625 225.394531 172.960938 C 224.941406 172.660156 224.523438 172.316406 224.136719 171.929688 C 223.753906 171.546875 223.410156 171.125 223.109375 170.675781 C 222.804688 170.222656 222.550781 169.742188 222.339844 169.242188 C 222.132812 168.738281 221.976562 168.21875 221.871094 167.683594 C 221.761719 167.152344 221.710938 166.613281 221.710938 166.066406 C 221.722656 165.53125 221.789062 165 221.902344 164.476562 C 222.019531 163.953125 222.183594 163.445312 222.398438 162.957031 C 222.609375 162.464844 222.871094 161.996094 223.175781 161.554688 C 223.480469 161.113281 223.824219 160.707031 224.207031 160.332031 C 224.589844 159.957031 225.007812 159.625 225.457031 159.328125 C 225.902344 159.035156 226.375 158.789062 226.871094 158.585938 C 227.371094 158.382812 227.878906 158.230469 228.40625 158.128906 C 228.933594 158.023438 229.464844 157.972656 230 157.972656 Z M 230 157.777344 " fill-opacity="1" fill-rule="nonzero"/><path fill="#000000" d="M 148.027344 236.9375 C 148.730469 236.9375 149.429688 236.90625 150.128906 236.839844 C 150.828125 236.773438 151.523438 236.671875 152.214844 236.535156 C 152.902344 236.402344 153.585938 236.234375 154.257812 236.03125 C 154.933594 235.828125 155.59375 235.59375 156.242188 235.328125 C 156.894531 235.058594 157.53125 234.761719 158.148438 234.429688 C 158.769531 234.101562 159.375 233.742188 159.960938 233.351562 C 160.546875 232.964844 161.109375 232.546875 161.65625 232.101562 C 162.199219 231.660156 162.71875 231.1875 163.21875 230.691406 C 163.71875 230.195312 164.191406 229.675781 164.636719 229.136719 C 165.085938 228.59375 165.503906 228.03125 165.894531 227.445312 C 166.289062 226.863281 166.648438 226.261719 166.984375 225.640625 C 167.316406 225.023438 167.617188 224.390625 167.886719 223.738281 C 168.160156 223.089844 168.394531 222.429688 168.601562 221.757812 C 168.808594 221.085938 168.980469 220.40625 169.117188 219.714844 C 169.257812 219.027344 169.363281 218.332031 169.433594 217.632812 C 169.503906 216.933594 169.539062 216.230469 169.539062 215.527344 C 169.539062 214.824219 169.507812 214.125 169.441406 213.425781 C 169.371094 212.726562 169.269531 212.03125 169.136719 211.339844 C 169 210.652344 168.832031 209.96875 168.628906 209.296875 C 168.425781 208.621094 168.1875 207.960938 167.921875 207.3125 C 167.652344 206.660156 167.355469 206.027344 167.023438 205.40625 C 166.695312 204.785156 166.335938 204.183594 165.945312 203.597656 C 165.554688 203.011719 165.136719 202.445312 164.691406 201.902344 C 164.246094 201.359375 163.777344 200.835938 163.28125 200.339844 C 162.785156 199.84375 162.265625 199.371094 161.722656 198.921875 C 161.179688 198.476562 160.617188 198.058594 160.03125 197.664062 C 159.449219 197.273438 158.847656 196.914062 158.226562 196.582031 C 157.609375 196.246094 156.972656 195.945312 156.324219 195.675781 C 155.675781 195.40625 155.015625 195.167969 154.34375 194.964844 C 153.671875 194.761719 152.988281 194.589844 152.300781 194.449219 C 151.613281 194.3125 150.917969 194.207031 150.21875 194.140625 C 149.519531 194.070312 148.816406 194.035156 148.113281 194.035156 C 147.410156 194.03125 146.710938 194.066406 146.011719 194.136719 C 145.3125 194.203125 144.617188 194.304688 143.925781 194.441406 C 143.238281 194.578125 142.554688 194.75 141.882812 194.953125 C 141.210938 195.15625 140.550781 195.390625 139.898438 195.660156 C 139.25 195.929688 138.617188 196.230469 137.996094 196.558594 C 137.375 196.890625 136.773438 197.25 136.1875 197.640625 C 135.601562 198.03125 135.039062 198.449219 134.496094 198.894531 C 133.953125 199.339844 133.429688 199.8125 132.933594 200.308594 C 132.4375 200.804688 131.964844 201.324219 131.519531 201.867188 C 131.074219 202.414062 130.65625 202.976562 130.265625 203.558594 C 129.875 204.144531 129.511719 204.746094 129.179688 205.367188 C 128.847656 205.988281 128.546875 206.621094 128.28125 207.269531 C 128.011719 207.921875 127.773438 208.582031 127.570312 209.253906 C 127.367188 209.925781 127.195312 210.609375 127.058594 211.296875 C 126.921875 211.988281 126.816406 212.679688 126.75 213.382812 C 126.679688 214.082031 126.644531 214.78125 126.644531 215.484375 C 126.644531 216.1875 126.679688 216.886719 126.746094 217.582031 C 126.816406 218.28125 126.917969 218.972656 127.054688 219.660156 C 127.191406 220.351562 127.363281 221.027344 127.566406 221.699219 C 127.769531 222.371094 128.003906 223.03125 128.269531 223.679688 C 128.539062 224.328125 128.835938 224.960938 129.167969 225.578125 C 129.496094 226.199219 129.855469 226.796875 130.246094 227.382812 C 130.632812 227.964844 131.050781 228.527344 131.496094 229.070312 C 131.9375 229.613281 132.410156 230.132812 132.902344 230.628906 C 133.398438 231.125 133.917969 231.597656 134.457031 232.042969 C 135 232.488281 135.558594 232.90625 136.140625 233.296875 C 136.722656 233.6875 137.324219 234.050781 137.941406 234.382812 C 138.558594 234.714844 139.191406 235.015625 139.839844 235.285156 C 140.484375 235.554688 141.144531 235.792969 141.816406 235.996094 C 142.484375 236.203125 143.164062 236.375 143.851562 236.511719 C 144.539062 236.652344 145.230469 236.757812 145.929688 236.828125 C 146.625 236.898438 147.324219 236.933594 148.027344 236.9375 Z M 148.027344 207.257812 C 148.574219 207.253906 149.113281 207.304688 149.648438 207.40625 C 150.1875 207.511719 150.707031 207.664062 151.214844 207.871094 C 151.71875 208.074219 152.199219 208.328125 152.65625 208.628906 C 153.113281 208.929688 153.535156 209.273438 153.921875 209.65625 C 154.3125 210.042969 154.65625 210.460938 154.964844 210.914062 C 155.269531 211.363281 155.527344 211.84375 155.738281 212.347656 C 155.949219 212.851562 156.109375 213.371094 156.214844 213.90625 C 156.324219 214.441406 156.378906 214.980469 156.382812 215.527344 C 156.382812 216.074219 156.332031 216.617188 156.226562 217.152344 C 156.121094 217.6875 155.960938 218.207031 155.753906 218.714844 C 155.546875 219.21875 155.289062 219.699219 154.988281 220.152344 C 154.683594 220.605469 154.339844 221.027344 153.953125 221.414062 C 153.566406 221.800781 153.148438 222.144531 152.691406 222.449219 C 152.238281 222.75 151.757812 223.007812 151.253906 223.214844 C 150.75 223.421875 150.230469 223.578125 149.691406 223.683594 C 149.15625 223.789062 148.617188 223.84375 148.070312 223.839844 C 147.523438 223.839844 146.984375 223.785156 146.449219 223.675781 C 145.914062 223.570312 145.394531 223.410156 144.890625 223.199219 C 144.386719 222.988281 143.90625 222.726562 143.453125 222.421875 C 143.003906 222.117188 142.582031 221.769531 142.199219 221.382812 C 141.816406 220.992188 141.472656 220.570312 141.171875 220.117188 C 140.871094 219.660156 140.617188 219.179688 140.414062 218.671875 C 140.207031 218.167969 140.054688 217.644531 139.949219 217.109375 C 139.847656 216.574219 139.796875 216.03125 139.800781 215.484375 C 139.820312 214.953125 139.886719 214.429688 140.003906 213.914062 C 140.121094 213.394531 140.289062 212.894531 140.5 212.40625 C 140.714844 211.921875 140.972656 211.460938 141.273438 211.023438 C 141.578125 210.589844 141.917969 210.183594 142.296875 209.816406 C 142.679688 209.445312 143.089844 209.113281 143.53125 208.820312 C 143.976562 208.53125 144.441406 208.28125 144.933594 208.082031 C 145.425781 207.878906 145.929688 207.726562 146.449219 207.621094 C 146.96875 207.515625 147.496094 207.460938 148.027344 207.457031 Z M 148.027344 207.257812 " fill-opacity="1" fill-rule="nonzero"/></svg>