<svg xmlns="http://www.w3.org/2000/svg" xmlns:xlink="http://www.w3.org/1999/xlink" width="500" zoomAndPan="magnify" viewBox="0 0 375 374.999991" height="500" preserveAspectRatio="xMidYMid meet" version="1.0"><defs><clipPath id="76a0f8b447"><path d="M 37.5 37.5 L 92 37.5 L 92 92 L 37.5 92 Z M 37.5 37.5 " clip-rule="nonzero"/></clipPath><clipPath id="cc0b1de658"><path d="M 283 37.5 L 337.5 37.5 L 337.5 92 L 283 92 Z M 283 37.5 " clip-rule="nonzero"/></clipPath><clipPath id="e9c0a938f5"><path d="M 160 37.5 L 215 37.5 L 215 92 L 160 92 Z M 160 37.5 " clip-rule="nonzero"/></clipPath><clipPath id="e4e2c8f0f9"><path d="M 37.5 283 L 92 283 L 92 337.5 L 37.5 337.5 Z M 37.5 283 " clip-rule="nonzero"/></clipPath><clipPath id="e969aac1e0"><path d="M 283 283 L 337.5 283 L 337.5 337.5 L 283 337.5 Z M 283 283 " clip-rule="nonzero"/></clipPath><clipPath id="a58b89b00b"><path d="M 160 283 L 215 283 L 215 337.5 L 160 337.5 Z M 160 283 " clip-rule="nonzero"/></clipPath><clipPath id="43b6010979"><path d="M 37.5 160 L 92 160 L 92 215 L 37.5 215 Z M 37.5 160 " clip-rule="nonzero"/></clipPath><clipPath id="5414a577fc"><path d="M 283 160 L 337.5 160 L 337.5 215 L 283 215 Z M 283 160 " clip-rule="nonzero"/></clipPath></defs><g clip-path="url(#76a0f8b447)"><path fill="#000000" d="M 64.472656 91.476562 C 49.574219 91.476562 37.5 79.402344 37.5 64.503906 C 37.5 49.601562 49.574219 37.53125 64.472656 37.53125 C 79.371094 37.53125 91.445312 49.601562 91.445312 64.503906 C 91.445312 79.402344 79.371094 91.476562 64.472656 91.476562 Z M 64.472656 43.476562 C 52.871094 43.476562 43.390625 52.902344 43.390625 64.5625 C 43.390625 76.222656 52.8125 85.644531 64.472656 85.644531 C 76.074219 85.644531 85.554688 76.222656 85.554688 64.5625 C 85.554688 52.902344 76.132812 43.476562 64.472656 43.476562 Z M 64.472656 43.476562 " fill-opacity="1" fill-rule="nonzero"/></g><g clip-path="url(#cc0b1de658)"><path fill="#000000" d="M 310.527344 91.476562 C 295.628906 91.476562 283.554688 79.402344 283.554688 64.503906 C 283.554688 49.601562 295.628906 37.53125 310.527344 37.53125 C 325.425781 37.53125 337.5 49.601562 337.5 64.503906 C 337.441406 79.402344 325.367188 91.476562 310.527344 91.476562 Z M 310.527344 43.476562 C 298.925781 43.476562 289.445312 52.902344 289.445312 64.5625 C 289.445312 76.222656 298.867188 85.644531 310.527344 85.644531 C 322.128906 85.644531 331.609375 76.222656 331.609375 64.5625 C 331.550781 52.902344 322.128906 43.476562 310.527344 43.476562 Z M 310.527344 43.476562 " fill-opacity="1" fill-rule="nonzero"/></g><g clip-path="url(#e9c0a938f5)"><path fill="#000000" d="M 187.5 91.476562 C 172.601562 91.476562 160.527344 79.402344 160.527344 64.503906 C 160.527344 49.601562 172.601562 37.53125 187.5 37.53125 C 202.398438 37.53125 214.472656 49.601562 214.472656 64.503906 C 214.414062 79.402344 202.398438 91.476562 187.5 91.476562 Z M 187.5 43.476562 C 175.898438 43.476562 166.417969 52.902344 166.417969 64.5625 C 166.417969 76.164062 175.839844 85.644531 187.5 85.644531 C 199.101562 85.644531 208.582031 76.222656 208.582031 64.5625 C 208.523438 52.902344 199.101562 43.476562 187.5 43.476562 Z M 187.5 43.476562 " fill-opacity="1" fill-rule="nonzero"/></g><path fill="#000000" d="M 286.5 67.445312 L 211.527344 67.445312 C 209.878906 67.445312 208.582031 66.152344 208.582031 64.503906 C 208.582031 62.851562 209.878906 61.558594 211.527344 61.558594 L 286.558594 61.558594 C 288.207031 61.558594 289.503906 62.851562 289.503906 64.503906 C 289.445312 66.152344 288.148438 67.445312 286.5 67.445312 Z M 286.5 67.445312 " fill-opacity="1" fill-rule="nonzero"/><path fill="#000000" d="M 163.472656 67.445312 L 88.5 67.445312 C 86.851562 67.445312 85.554688 66.152344 85.554688 64.503906 C 85.554688 62.851562 86.851562 61.558594 88.5 61.558594 L 163.53125 61.558594 C 165.179688 61.558594 166.476562 62.851562 166.476562 64.503906 C 166.417969 66.152344 165.121094 67.445312 163.472656 67.445312 Z M 163.472656 67.445312 " fill-opacity="1" fill-rule="nonzero"/><g clip-path="url(#e4e2c8f0f9)"><path fill="#000000" d="M 64.472656 337.46875 C 49.574219 337.46875 37.5 325.398438 37.5 310.496094 C 37.5 295.597656 49.574219 283.523438 64.472656 283.523438 C 79.371094 283.523438 91.445312 295.597656 91.445312 310.496094 C 91.445312 325.398438 79.371094 337.46875 64.472656 337.46875 Z M 64.472656 289.472656 C 52.871094 289.472656 43.390625 298.894531 43.390625 310.554688 C 43.390625 322.21875 52.8125 331.640625 64.472656 331.640625 C 76.074219 331.640625 85.554688 322.21875 85.554688 310.554688 C 85.554688 298.894531 76.132812 289.472656 64.472656 289.472656 Z M 64.472656 289.472656 " fill-opacity="1" fill-rule="nonzero"/></g><g clip-path="url(#e969aac1e0)"><path fill="#000000" d="M 310.527344 337.46875 C 295.628906 337.46875 283.554688 325.398438 283.554688 310.496094 C 283.554688 295.597656 295.628906 283.523438 310.527344 283.523438 C 325.425781 283.523438 337.5 295.597656 337.5 310.496094 C 337.441406 325.398438 325.367188 337.46875 310.527344 337.46875 Z M 310.527344 289.472656 C 298.925781 289.472656 289.445312 298.894531 289.445312 310.554688 C 289.445312 322.21875 298.867188 331.640625 310.527344 331.640625 C 322.128906 331.640625 331.609375 322.21875 331.609375 310.554688 C 331.550781 298.894531 322.128906 289.472656 310.527344 289.472656 Z M 310.527344 289.472656 " fill-opacity="1" fill-rule="nonzero"/></g><g clip-path="url(#a58b89b00b)"><path fill="#000000" d="M 187.5 337.46875 C 172.601562 337.46875 160.527344 325.398438 160.527344 310.496094 C 160.527344 295.597656 172.601562 283.523438 187.5 283.523438 C 202.398438 283.523438 214.472656 295.597656 214.472656 310.496094 C 214.414062 325.398438 202.398438 337.46875 187.5 337.46875 Z M 187.5 289.472656 C 175.898438 289.472656 166.417969 298.894531 166.417969 310.554688 C 166.417969 322.160156 175.839844 331.640625 187.5 331.640625 C 199.101562 331.640625 208.582031 322.21875 208.582031 310.554688 C 208.523438 298.894531 199.101562 289.472656 187.5 289.472656 Z M 187.5 289.472656 " fill-opacity="1" fill-rule="nonzero"/></g><path fill="#000000" d="M 286.5 313.5 L 211.527344 313.5 C 209.878906 313.5 208.582031 312.207031 208.582031 310.554688 C 208.582031 308.90625 209.878906 307.613281 211.527344 307.613281 L 286.558594 307.613281 C 288.207031 307.613281 289.503906 308.90625 289.503906 310.554688 C 289.503906 312.207031 288.148438 313.5 286.5 313.5 Z M 286.5 313.5 " fill-opacity="1" fill-rule="nonzero"/><path fill="#000000" d="M 163.472656 313.5 L 88.5 313.5 C 86.851562 313.5 85.554688 312.207031 85.554688 310.554688 C 85.554688 308.90625 86.851562 307.613281 88.5 307.613281 L 163.53125 307.613281 C 165.179688 307.613281 166.476562 308.90625 166.476562 310.554688 C 166.476562 312.207031 165.121094 313.5 163.472656 313.5 Z M 163.472656 313.5 " fill-opacity="1" fill-rule="nonzero"/><g clip-path="url(#43b6010979)"><path fill="#000000" d="M 64.472656 214.503906 C 49.574219 214.503906 37.5 202.429688 37.5 187.53125 C 37.5 172.628906 49.574219 160.554688 64.414062 160.554688 C 79.253906 160.554688 91.386719 172.628906 91.386719 187.46875 C 91.445312 202.429688 79.371094 214.445312 64.472656 214.503906 Z M 64.472656 166.445312 C 52.871094 166.445312 43.390625 175.867188 43.390625 187.53125 C 43.390625 199.132812 52.8125 208.613281 64.414062 208.613281 C 76.015625 208.613281 85.496094 199.191406 85.496094 187.589844 C 85.554688 175.925781 76.132812 166.503906 64.472656 166.445312 Z M 64.472656 166.445312 " fill-opacity="1" fill-rule="nonzero"/></g><g clip-path="url(#5414a577fc)"><path fill="#000000" d="M 310.527344 214.503906 C 295.628906 214.503906 283.554688 202.429688 283.554688 187.53125 C 283.554688 172.628906 295.628906 160.554688 310.527344 160.554688 C 325.425781 160.554688 337.5 172.628906 337.5 187.53125 C 337.441406 202.429688 325.367188 214.445312 310.527344 214.503906 Z M 310.527344 166.445312 C 298.925781 166.445312 289.445312 175.867188 289.445312 187.53125 C 289.445312 199.191406 298.867188 208.613281 310.527344 208.613281 C 322.1875 208.613281 331.609375 199.191406 331.609375 187.53125 C 331.550781 175.925781 322.128906 166.503906 310.527344 166.445312 Z M 310.527344 166.445312 " fill-opacity="1" fill-rule="nonzero"/></g><path fill="#000000" d="M 187.5 214.503906 C 172.601562 214.503906 160.527344 202.429688 160.527344 187.53125 C 160.527344 172.628906 172.601562 160.554688 187.5 160.554688 C 202.398438 160.554688 214.472656 172.628906 214.472656 187.53125 C 214.414062 202.429688 202.398438 214.445312 187.5 214.503906 Z M 187.5 166.445312 C 175.898438 166.445312 166.417969 175.867188 166.417969 187.53125 C 166.417969 199.132812 175.839844 208.613281 187.5 208.613281 C 199.160156 208.613281 208.582031 199.191406 208.582031 187.53125 C 208.523438 175.925781 199.101562 166.503906 187.5 166.445312 Z M 187.5 166.445312 " fill-opacity="1" fill-rule="nonzero"/><path fill="#000000" d="M 286.5 190.472656 L 211.527344 190.472656 C 209.878906 190.472656 208.582031 189.179688 208.582031 187.53125 C 208.582031 185.878906 209.878906 184.585938 211.527344 184.585938 L 286.558594 184.585938 C 288.207031 184.585938 289.503906 185.878906 289.503906 187.53125 C 289.503906 189.179688 288.148438 190.472656 286.5 190.472656 Z M 286.5 190.472656 " fill-opacity="1" fill-rule="nonzero"/><path fill="#000000" d="M 163.472656 190.472656 L 88.5 190.472656 C 86.851562 190.472656 85.554688 189.179688 85.554688 187.53125 C 85.554688 185.878906 86.851562 184.585938 88.5 184.585938 L 163.53125 184.585938 C 165.179688 184.585938 166.476562 185.878906 166.476562 187.53125 C 166.476562 189.179688 165.121094 190.472656 163.472656 190.472656 Z M 163.472656 190.472656 " fill-opacity="1" fill-rule="nonzero"/><path fill="#000000" d="M 187.5 166.445312 C 186.96875 166.445312 186.441406 166.328125 186.027344 166.035156 L 58.230469 90.53125 C 56.875 89.648438 56.40625 87.882812 57.289062 86.46875 C 58.113281 85.113281 59.820312 84.703125 61.234375 85.46875 L 189.03125 160.96875 C 190.445312 161.792969 190.914062 163.617188 190.03125 165.03125 C 189.503906 165.914062 188.558594 166.445312 187.5 166.445312 Z M 187.5 166.445312 " fill-opacity="1" fill-rule="nonzero"/><path fill="#000000" d="M 187.5 166.445312 C 185.851562 166.445312 184.554688 165.148438 184.554688 163.5 C 184.554688 162.441406 185.085938 161.5 185.96875 160.96875 L 313.765625 85.46875 C 315.238281 84.703125 317.003906 85.292969 317.710938 86.765625 C 318.417969 88.117188 317.949219 89.707031 316.710938 90.53125 L 188.914062 166.035156 C 188.558594 166.328125 188.03125 166.445312 187.5 166.445312 Z M 187.5 166.445312 " fill-opacity="1" fill-rule="nonzero"/><path fill="#000000" d="M 187.5 289.945312 C 186.96875 289.945312 186.441406 289.828125 186.027344 289.53125 L 58.230469 214.03125 C 56.875 213.148438 56.40625 211.382812 57.289062 209.96875 C 58.113281 208.613281 59.820312 208.199219 61.234375 208.964844 L 189.03125 284.46875 C 190.445312 285.292969 190.914062 287.117188 190.03125 288.53125 C 189.503906 289.414062 188.5 289.945312 187.5 289.945312 Z M 187.5 289.945312 " fill-opacity="1" fill-rule="nonzero"/><path fill="#000000" d="M 187.5 289.945312 C 185.851562 289.945312 184.554688 288.648438 184.554688 287 C 184.554688 285.9375 185.085938 284.996094 185.96875 284.46875 L 313.765625 208.964844 C 315.179688 208.140625 316.945312 208.613281 317.769531 210.027344 C 318.59375 211.441406 318.125 213.207031 316.710938 214.03125 L 188.914062 289.53125 C 188.558594 289.828125 188.03125 289.945312 187.5 289.945312 Z M 187.5 289.945312 " fill-opacity="1" fill-rule="nonzero"/><path fill="#000000" d="M 59.703125 289.945312 C 58.054688 289.945312 56.757812 288.648438 56.757812 287 C 56.757812 285.9375 57.289062 284.996094 58.171875 284.46875 L 185.96875 208.964844 C 187.382812 208.140625 189.148438 208.613281 190.03125 210.027344 C 190.855469 211.441406 190.386719 213.207031 188.972656 214.089844 L 61.175781 289.589844 C 60.761719 289.828125 60.234375 289.945312 59.703125 289.945312 Z M 59.703125 289.945312 " fill-opacity="1" fill-rule="nonzero"/><path fill="#000000" d="M 315.296875 289.945312 C 314.765625 289.945312 314.238281 289.828125 313.824219 289.53125 L 186.027344 214.03125 C 184.613281 213.207031 184.144531 211.382812 184.96875 210.027344 C 185.792969 208.613281 187.617188 208.140625 189.03125 208.964844 L 316.828125 284.46875 C 318.242188 285.292969 318.714844 287.117188 317.828125 288.53125 C 317.300781 289.414062 316.296875 289.945312 315.296875 289.945312 Z M 315.296875 289.945312 " fill-opacity="1" fill-rule="nonzero"/><path fill="#000000" d="M 59.703125 166.445312 C 58.054688 166.445312 56.757812 165.148438 56.757812 163.5 C 56.757812 162.441406 57.289062 161.5 58.171875 160.96875 L 185.96875 85.46875 C 187.441406 84.761719 189.207031 85.351562 189.914062 86.765625 C 190.5625 88.058594 190.148438 89.707031 188.914062 90.53125 L 61.117188 166.035156 C 60.761719 166.328125 60.234375 166.445312 59.703125 166.445312 Z M 59.703125 166.445312 " fill-opacity="1" fill-rule="nonzero"/><path fill="#000000" d="M 315.296875 166.445312 C 314.765625 166.445312 314.238281 166.328125 313.824219 166.035156 L 186.027344 90.53125 C 184.613281 89.707031 184.144531 87.882812 184.96875 86.46875 C 185.792969 85.054688 187.617188 84.585938 189.03125 85.410156 L 316.828125 160.910156 C 318.242188 161.734375 318.714844 163.558594 317.828125 164.972656 C 317.300781 165.914062 316.359375 166.445312 315.296875 166.445312 Z M 315.296875 166.445312 " fill-opacity="1" fill-rule="nonzero"/></svg>