<svg xmlns="http://www.w3.org/2000/svg" xmlns:xlink="http://www.w3.org/1999/xlink" width="500" zoomAndPan="magnify" viewBox="0 0 375 374.999991" height="500" preserveAspectRatio="xMidYMid meet" version="1.0"><defs><clipPath id="1e25453333"><path d="M 37.5 37.5 L 337.5 37.5 L 337.5 337.5 L 37.5 337.5 Z M 37.5 37.5 " clip-rule="nonzero"/></clipPath></defs><g clip-path="url(#1e25453333)"><path fill="#000000" d="M 187.5 37.5 C 104.789062 37.5 37.5 104.789062 37.5 187.5 C 37.5 270.210938 104.789062 337.5 187.5 337.5 C 270.210938 337.5 337.5 270.210938 337.5 187.5 C 337.5 104.789062 270.210938 37.5 187.5 37.5 Z M 187.5 332.738281 C 107.414062 332.738281 42.261719 267.585938 42.261719 187.5 C 42.261719 107.414062 107.414062 42.261719 187.5 42.261719 C 267.585938 42.261719 332.738281 107.414062 332.738281 187.5 C 332.738281 267.585938 267.585938 332.738281 187.5 332.738281 Z M 187.5 332.738281 " fill-opacity="1" fill-rule="nonzero"/></g><path fill="#000000" d="M 187.5 57.617188 C 115.882812 57.617188 57.617188 115.882812 57.617188 187.5 C 57.617188 221.65625 70.773438 253.910156 94.664062 278.320312 C 118.445312 302.617188 150.214844 316.460938 184.089844 317.316406 C 184.230469 317.34375 184.371094 317.382812 184.523438 317.382812 C 184.601562 317.382812 184.667969 317.34375 184.742188 317.335938 C 185.660156 317.367188 186.582031 317.382812 187.5 317.382812 C 192.703125 317.382812 197.832031 317.078125 202.730469 316.484375 C 246.765625 311.351562 284.71875 284.425781 304.257812 244.453125 C 304.289062 244.386719 304.320312 244.316406 304.34375 244.246094 C 307.644531 237.480469 310.347656 230.425781 312.386719 223.277344 C 315.699219 211.671875 317.382812 199.636719 317.382812 187.503906 C 317.382812 115.882812 259.117188 57.617188 187.5 57.617188 Z M 62.382812 187.5 C 62.382812 118.507812 118.507812 62.382812 187.5 62.382812 C 256.492188 62.382812 312.617188 118.507812 312.617188 187.5 C 312.617188 197.734375 311.378906 207.894531 308.925781 217.769531 C 306.925781 215.835938 304.714844 214.207031 302.261719 212.984375 C 295.039062 209.4375 288.785156 210.496094 284.199219 211.273438 C 280.773438 211.847656 278.707031 212.195312 275.878906 211.203125 C 272.59375 210.058594 271.230469 208.285156 268.175781 203.507812 C 265.179688 198.800781 261.074219 192.351562 252.527344 188.582031 C 237.398438 181.964844 215.710938 187.136719 204.199219 200.109375 C 193.121094 212.5625 195.003906 227.246094 196.660156 240.210938 C 198.148438 251.765625 199.558594 262.679688 192.519531 272.742188 C 191.484375 274.234375 190.28125 275.671875 188.875 277.355469 C 184.625 282.464844 179.332031 288.828125 178.792969 299.085938 C 178.550781 303.519531 179.257812 307.980469 180.859375 312.394531 C 115.199219 308.90625 62.382812 253.667969 62.382812 187.5 Z M 203.507812 311.558594 C 200.480469 307.453125 199.023438 303.632812 199.210938 300.195312 C 199.378906 296.976562 200.832031 294.953125 204.648438 290.390625 L 205.167969 289.757812 C 206.457031 288.191406 207.914062 286.417969 209.308594 284.4375 C 220.820312 267.941406 218.683594 251.152344 216.957031 237.605469 C 215.449219 225.839844 214.824219 218.929688 219.472656 213.703125 C 225.046875 207.425781 237.347656 204.269531 244.3125 207.328125 C 246.996094 208.496094 248.359375 210.488281 250.949219 214.519531 C 254.292969 219.753906 258.875 226.921875 269.144531 230.507812 C 277.023438 233.265625 283.40625 232.152344 287.609375 231.417969 C 291.367188 230.789062 292.101562 230.777344 293.210938 231.324219 C 295.886719 232.644531 298.136719 236.820312 299.601562 243.089844 C 280.875 280.785156 245.089844 306.257812 203.507812 311.558594 Z M 203.507812 311.558594 " fill-opacity="1" fill-rule="nonzero"/><path fill="#000000" d="M 148.417969 137.167969 C 153.003906 140.832031 158.289062 142.910156 162.882812 142.910156 C 163.421875 142.910156 163.953125 142.882812 164.472656 142.824219 C 167.300781 142.503906 169.609375 141.316406 171.144531 139.386719 C 173.371094 136.601562 173.71875 132.714844 172.125 128.441406 C 170.691406 124.582031 167.785156 120.769531 163.941406 117.710938 C 155.5625 111.011719 145.582031 110.035156 141.210938 115.488281 C 136.863281 120.941406 140.027344 130.460938 148.417969 137.167969 Z M 148.417969 137.167969 " fill-opacity="1" fill-rule="nonzero"/><path fill="#000000" d="M 137.160156 213.089844 C 134.269531 204.585938 128.949219 197.738281 122.921875 194.777344 C 119.570312 193.125 116.1875 192.800781 113.160156 193.839844 C 110.109375 194.882812 107.625 197.207031 105.972656 200.574219 C 103.019531 206.59375 102.984375 215.246094 105.886719 223.714844 C 108.050781 230.085938 111.601562 235.589844 115.886719 239.21875 C 119.269531 242.085938 122.839844 243.566406 126.238281 243.566406 C 127.484375 243.566406 128.707031 243.367188 129.886719 242.964844 C 138.648438 239.972656 141.839844 226.847656 137.160156 213.089844 Z M 137.160156 213.089844 " fill-opacity="1" fill-rule="nonzero"/><path fill="#000000" d="M 238.4375 121.300781 C 240.398438 126.5625 244.378906 131.765625 249.632812 135.953125 C 254.886719 140.148438 260.84375 142.867188 266.40625 143.613281 C 267.441406 143.753906 268.4375 143.820312 269.402344 143.820312 C 274.039062 143.820312 277.816406 142.234375 280.222656 139.21875 C 283.113281 135.589844 283.539062 130.464844 281.421875 124.792969 C 279.460938 119.53125 275.484375 114.328125 270.222656 110.136719 C 264.972656 105.941406 259.015625 103.222656 253.453125 102.480469 C 247.464844 101.671875 242.546875 103.230469 239.636719 106.871094 C 236.746094 110.503906 236.320312 115.625 238.4375 121.300781 Z M 243.359375 109.839844 C 244.828125 108 247.304688 107.035156 250.460938 107.035156 C 251.210938 107.035156 252 107.085938 252.820312 107.199219 C 257.539062 107.832031 262.664062 110.195312 267.253906 113.859375 C 267.253906 113.859375 267.253906 113.859375 267.253906 113.863281 C 271.847656 117.519531 275.296875 121.996094 276.960938 126.460938 C 278.46875 130.503906 278.300781 133.984375 276.496094 136.253906 C 274.679688 138.53125 271.324219 139.472656 267.035156 138.894531 C 262.316406 138.261719 257.191406 135.894531 252.601562 132.230469 C 248.007812 128.570312 244.5625 124.097656 242.894531 119.632812 C 241.386719 115.589844 241.550781 112.109375 243.359375 109.839844 Z M 243.359375 109.839844 " fill-opacity="1" fill-rule="nonzero"/><path fill="#000000" d="M 181.4375 170.253906 C 181.429688 170.257812 181.429688 170.257812 181.425781 170.261719 C 174.371094 176.300781 171.945312 184.667969 175.902344 189.308594 C 177.328125 190.972656 179.402344 191.957031 181.90625 192.15625 C 182.214844 192.179688 182.53125 192.191406 182.851562 192.191406 C 186.917969 192.191406 191.597656 190.234375 195.5625 186.839844 C 199.867188 183.1875 202.644531 178.453125 202.984375 174.183594 C 203.1875 171.679688 202.539062 169.476562 201.113281 167.804688 C 197.144531 163.191406 188.496094 164.261719 181.4375 170.253906 Z M 181.4375 170.253906 " fill-opacity="1" fill-rule="nonzero"/><path fill="#000000" d="M 241.011719 260.234375 C 238.046875 259.183594 234.722656 260.003906 231.640625 262.546875 C 228.902344 264.804688 226.617188 268.234375 225.210938 272.203125 C 223.800781 276.175781 223.40625 280.277344 224.105469 283.753906 C 224.894531 287.671875 226.957031 290.40625 229.917969 291.460938 C 230.761719 291.757812 231.632812 291.90625 232.523438 291.90625 C 234.757812 291.90625 237.089844 290.972656 239.296875 289.164062 C 242.046875 286.910156 244.335938 283.480469 245.742188 279.511719 C 248.851562 270.765625 246.773438 262.296875 241.011719 260.234375 Z M 241.011719 260.234375 " fill-opacity="1" fill-rule="nonzero"/><path fill="#000000" d="M 287.3125 174.558594 C 283.660156 172.445312 279.734375 171.332031 276.148438 171.367188 C 272.15625 171.433594 269.089844 172.964844 267.511719 175.6875 C 264.453125 180.972656 268.359375 188.761719 276.402344 193.417969 C 276.40625 193.417969 276.40625 193.417969 276.40625 193.417969 C 280.09375 195.539062 283.914062 196.582031 287.269531 196.582031 C 291.234375 196.582031 294.550781 195.121094 296.203125 192.261719 C 297.304688 190.363281 297.542969 188.082031 296.890625 185.65625 C 295.78125 181.519531 292.199219 177.371094 287.3125 174.558594 Z M 287.3125 174.558594 " fill-opacity="1" fill-rule="nonzero"/><path fill="#000000" d="M 120.40625 116.070312 C 125.417969 116.070312 129.496094 111.992188 129.496094 106.976562 C 129.496094 101.960938 125.417969 97.882812 120.40625 97.882812 C 115.390625 97.882812 111.308594 101.960938 111.308594 106.976562 C 111.308594 111.992188 115.390625 116.070312 120.40625 116.070312 Z M 120.40625 116.070312 " fill-opacity="1" fill-rule="nonzero"/><path fill="#000000" d="M 201.90625 127.117188 C 201.90625 132.121094 205.972656 136.191406 210.980469 136.191406 C 215.992188 136.191406 220.070312 132.121094 220.070312 127.117188 C 220.070312 122.105469 215.992188 118.023438 210.980469 118.023438 C 205.972656 118.023438 201.90625 122.105469 201.90625 127.117188 Z M 201.90625 127.117188 " fill-opacity="1" fill-rule="nonzero"/><path fill="#000000" d="M 234.476562 151.570312 C 229.460938 151.570312 225.382812 155.648438 225.382812 160.667969 C 225.382812 165.683594 229.460938 169.761719 234.476562 169.761719 C 239.492188 169.761719 243.570312 165.683594 243.570312 160.667969 C 243.570312 155.648438 239.492188 151.570312 234.476562 151.570312 Z M 234.476562 151.570312 " fill-opacity="1" fill-rule="nonzero"/><path fill="#000000" d="M 234.476562 236.855469 C 239.492188 236.855469 243.570312 232.777344 243.570312 227.761719 C 243.570312 222.746094 239.492188 218.667969 234.476562 218.667969 C 229.460938 218.667969 225.382812 222.746094 225.382812 227.761719 C 225.382812 232.777344 229.460938 236.855469 234.476562 236.855469 Z M 234.476562 236.855469 " fill-opacity="1" fill-rule="nonzero"/><path fill="#000000" d="M 147.238281 199.953125 C 152.253906 199.953125 156.332031 195.875 156.332031 190.855469 C 156.332031 185.839844 152.253906 181.761719 147.238281 181.761719 C 142.222656 181.761719 138.144531 185.84375 138.144531 190.855469 C 138.144531 195.871094 142.222656 199.953125 147.238281 199.953125 Z M 147.238281 199.953125 " fill-opacity="1" fill-rule="nonzero"/><path fill="#000000" d="M 83.5 198.546875 C 78.484375 198.546875 74.40625 202.617188 74.40625 207.617188 C 74.40625 212.632812 78.484375 216.714844 83.5 216.714844 C 88.515625 216.714844 92.59375 212.636719 92.59375 207.617188 C 92.59375 202.617188 88.515625 198.546875 83.5 198.546875 Z M 83.5 198.546875 " fill-opacity="1" fill-rule="nonzero"/><path fill="#000000" d="M 231.117188 99.285156 C 236.132812 99.285156 240.210938 95.214844 240.210938 90.214844 C 240.210938 85.199219 236.132812 81.117188 231.117188 81.117188 C 226.105469 81.117188 222.023438 85.199219 222.023438 90.214844 C 222.023438 95.214844 226.105469 99.285156 231.117188 99.285156 Z M 231.117188 99.285156 " fill-opacity="1" fill-rule="nonzero"/><path fill="#000000" d="M 279.046875 153.953125 C 279.046875 158.964844 283.125 163.046875 288.140625 163.046875 C 293.15625 163.046875 297.234375 158.96875 297.234375 153.953125 C 297.234375 148.9375 293.15625 144.855469 288.140625 144.855469 C 283.125 144.855469 279.046875 148.9375 279.046875 153.953125 Z M 279.046875 153.953125 " fill-opacity="1" fill-rule="nonzero"/><path fill="#000000" d="M 180.644531 258.382812 C 180.960938 257.105469 180.1875 255.8125 178.910156 255.496094 L 171.492188 253.648438 L 171.503906 253.609375 C 172.480469 249.589844 170.035156 245.523438 166.058594 244.546875 L 166.003906 244.535156 L 167.859375 237.097656 C 168.175781 235.820312 167.402344 234.527344 166.125 234.210938 C 164.847656 233.882812 163.558594 234.667969 163.234375 235.945312 L 161.382812 243.367188 L 161.328125 243.351562 C 159.382812 242.875 157.367188 243.179688 155.644531 244.226562 C 153.941406 245.257812 152.746094 246.886719 152.285156 248.796875 L 152.269531 248.851562 L 144.835938 246.996094 C 143.5625 246.667969 142.265625 247.453125 141.949219 248.730469 C 141.632812 250.003906 142.40625 251.296875 143.683594 251.613281 L 151.113281 253.464844 L 149.226562 261.011719 L 141.8125 259.167969 C 140.539062 258.84375 139.246094 259.625 138.929688 260.898438 C 138.605469 262.175781 139.382812 263.46875 140.660156 263.789062 L 148.070312 265.640625 L 146.183594 273.183594 L 138.773438 271.308594 C 137.496094 270.992188 136.203125 271.757812 135.882812 273.035156 C 135.558594 274.308594 136.332031 275.605469 137.605469 275.925781 L 145.027344 277.800781 L 145.023438 277.820312 C 144.535156 279.765625 144.832031 281.777344 145.863281 283.492188 C 146.894531 285.203125 148.527344 286.414062 150.460938 286.898438 L 150.5 286.910156 L 148.648438 294.324219 C 148.328125 295.601562 149.101562 296.894531 150.382812 297.210938 C 150.574219 297.261719 150.769531 297.285156 150.960938 297.285156 C 152.027344 297.285156 152.996094 296.5625 153.265625 295.480469 L 155.121094 288.058594 L 155.160156 288.070312 C 155.769531 288.222656 156.386719 288.300781 157 288.300781 C 158.339844 288.300781 159.65625 287.9375 160.832031 287.230469 C 162.539062 286.203125 163.753906 284.570312 164.238281 282.636719 L 164.246094 282.597656 L 171.664062 284.453125 C 171.855469 284.503906 172.050781 284.523438 172.242188 284.523438 C 173.308594 284.523438 174.277344 283.800781 174.550781 282.722656 C 174.871094 281.445312 174.09375 280.152344 172.816406 279.832031 L 165.414062 277.984375 L 167.300781 270.4375 L 174.710938 272.285156 C 174.90625 272.335938 175.101562 272.355469 175.289062 272.355469 C 176.355469 272.355469 177.328125 271.636719 177.601562 270.550781 C 177.917969 269.277344 177.144531 267.984375 175.863281 267.667969 L 168.453125 265.820312 L 170.339844 258.269531 L 177.757812 260.117188 C 177.953125 260.167969 178.148438 260.191406 178.339844 260.191406 C 179.40625 260.191406 180.375 259.46875 180.644531 258.382812 Z M 180.644531 258.382812 " fill-opacity="1" fill-rule="nonzero"/><path fill="#000000" d="M 106.503906 169.335938 C 107.671875 172.265625 110.507812 174.0625 113.496094 174.0625 C 114.398438 174.0625 115.3125 173.898438 116.199219 173.550781 L 116.242188 173.535156 L 119.019531 180.648438 C 119.386719 181.589844 120.289062 182.167969 121.242188 182.167969 C 121.527344 182.167969 121.820312 182.113281 122.105469 182.003906 C 123.332031 181.523438 123.9375 180.144531 123.457031 178.917969 L 120.679688 171.800781 L 120.695312 171.792969 C 122.5625 171.070312 124.03125 169.660156 124.839844 167.828125 C 125.644531 165.992188 125.6875 163.953125 124.953125 162.078125 L 124.945312 162.058594 L 132.058594 159.261719 C 133.285156 158.78125 133.886719 157.398438 133.40625 156.175781 C 132.925781 154.949219 131.53125 154.347656 130.320312 154.832031 L 123.210938 157.625 L 120.371094 150.375 L 127.484375 147.597656 C 128.710938 147.117188 129.316406 145.738281 128.835938 144.515625 C 128.355469 143.289062 126.96875 142.683594 125.753906 143.160156 L 118.632812 145.941406 L 115.800781 138.703125 L 122.914062 135.90625 C 124.140625 135.425781 124.742188 134.046875 124.257812 132.820312 C 123.78125 131.59375 122.386719 130.996094 121.171875 131.476562 L 114.0625 134.269531 L 114.039062 134.210938 C 112.515625 130.394531 108.160156 128.503906 104.347656 129.996094 L 104.300781 130.011719 L 101.523438 122.894531 C 101.046875 121.667969 99.65625 121.066406 98.441406 121.542969 C 97.214844 122.019531 96.605469 123.402344 97.089844 124.625 L 99.867188 131.746094 L 99.851562 131.753906 C 97.984375 132.476562 96.515625 133.886719 95.710938 135.714844 C 94.902344 137.550781 94.859375 139.59375 95.589844 141.464844 L 95.601562 141.492188 L 88.484375 144.285156 C 87.257812 144.765625 86.65625 146.148438 87.140625 147.371094 C 87.507812 148.308594 88.40625 148.882812 89.355469 148.882812 C 89.648438 148.882812 89.941406 148.832031 90.226562 148.714844 L 97.339844 145.921875 L 100.175781 153.171875 L 93.0625 155.949219 C 91.839844 156.429688 91.230469 157.808594 91.710938 159.035156 C 92.078125 159.972656 92.980469 160.550781 93.929688 160.550781 C 94.21875 160.550781 94.511719 160.496094 94.796875 160.386719 L 101.914062 157.605469 L 104.746094 164.84375 L 97.632812 167.640625 C 96.40625 168.121094 95.804688 169.503906 96.289062 170.726562 C 96.65625 171.664062 97.554688 172.238281 98.503906 172.238281 C 98.796875 172.238281 99.089844 172.1875 99.375 172.070312 L 106.484375 169.277344 Z M 106.503906 169.335938 " fill-opacity="1" fill-rule="nonzero"/><path fill="#000000" d="M 159.976562 92.492188 C 161.074219 92.828125 162.203125 92.984375 163.332031 92.984375 C 168.410156 92.984375 173.546875 89.777344 176.148438 84.667969 C 179.464844 78.769531 185.855469 77.117188 189.855469 78.949219 C 192.601562 80.214844 193.964844 82.867188 194.632812 84.863281 C 189.1875 86.191406 185.117188 91.066406 185.117188 96.90625 C 185.117188 103.769531 190.707031 109.355469 197.570312 109.355469 C 204.421875 109.355469 210 103.769531 210 96.90625 C 210 90.722656 205.453125 85.625 199.539062 84.671875 C 198.796875 81.867188 196.828125 76.921875 191.851562 74.617188 C 184.933594 71.449219 176.210938 74.835938 171.949219 82.417969 C 169.757812 86.730469 165.207031 89.105469 161.363281 87.933594 C 158.078125 86.933594 156.558594 83.621094 156.171875 82.628906 C 155.691406 81.402344 154.304688 80.800781 153.089844 81.277344 C 151.863281 81.753906 151.253906 83.136719 151.734375 84.359375 C 152.320312 85.863281 154.636719 90.867188 159.976562 92.492188 Z M 159.976562 92.492188 " fill-opacity="1" fill-rule="nonzero"/><path fill="#000000" d="M 268.023438 242.144531 C 261.15625 242.144531 255.570312 247.730469 255.570312 254.59375 C 255.570312 261.460938 261.160156 267.046875 268.023438 267.046875 C 274.886719 267.046875 280.472656 261.460938 280.472656 254.59375 C 280.472656 247.730469 274.890625 242.144531 268.023438 242.144531 Z M 268.023438 242.144531 " fill-opacity="1" fill-rule="nonzero"/><path fill="#000000" d="M 262.984375 128.800781 C 263.449219 129.265625 264.058594 129.5 264.667969 129.5 C 265.277344 129.5 265.886719 129.265625 266.351562 128.800781 C 267.28125 127.871094 267.28125 126.367188 266.351562 125.4375 L 259.636719 118.722656 C 258.703125 117.789062 257.199219 117.789062 256.269531 118.722656 C 255.339844 119.652344 255.339844 121.15625 256.269531 122.089844 Z M 262.984375 128.800781 " fill-opacity="1" fill-rule="nonzero"/><path fill="#000000" d="M 226.613281 243.773438 C 225.882812 244.867188 226.179688 246.34375 227.269531 247.078125 L 235.65625 252.671875 C 236.0625 252.941406 236.519531 253.070312 236.976562 253.070312 C 237.746094 253.070312 238.5 252.699219 238.960938 252.011719 C 239.691406 250.917969 239.394531 249.441406 238.300781 248.710938 L 229.917969 243.113281 C 228.820312 242.378906 227.34375 242.679688 226.613281 243.773438 Z M 226.613281 243.773438 " fill-opacity="1" fill-rule="nonzero"/><path fill="#000000" d="M 254.722656 230.644531 C 253.449219 230.320312 252.15625 231.09375 251.832031 232.371094 L 249.382812 242.132812 C 249.058594 243.410156 249.832031 244.703125 251.109375 245.019531 C 251.304688 245.070312 251.5 245.09375 251.691406 245.09375 C 252.757812 245.09375 253.726562 244.371094 254 243.292969 L 256.453125 233.53125 C 256.773438 232.257812 256 230.960938 254.722656 230.644531 Z M 254.722656 230.644531 " fill-opacity="1" fill-rule="nonzero"/><path fill="#000000" d="M 214.90625 289.5 C 213.632812 289.171875 212.339844 289.957031 212.019531 291.234375 L 209.59375 300.996094 C 209.277344 302.273438 210.050781 303.566406 211.328125 303.882812 C 211.519531 303.929688 211.714844 303.953125 211.90625 303.953125 C 212.972656 303.953125 213.941406 303.230469 214.214844 302.144531 L 216.644531 292.382812 C 216.960938 291.109375 216.183594 289.816406 214.90625 289.5 Z M 214.90625 289.5 " fill-opacity="1" fill-rule="nonzero"/><path fill="#000000" d="M 177.046875 163.046875 C 177.8125 163.046875 178.570312 162.675781 179.027344 161.988281 C 179.757812 160.894531 179.464844 159.417969 178.371094 158.6875 L 169.988281 153.089844 C 168.886719 152.355469 167.414062 152.65625 166.683594 153.746094 C 165.953125 154.839844 166.246094 156.320312 167.339844 157.050781 L 175.722656 162.644531 C 176.132812 162.917969 176.59375 163.046875 177.046875 163.046875 Z M 177.046875 163.046875 " fill-opacity="1" fill-rule="nonzero"/><path fill="#000000" d="M 187.503906 145.976562 C 188.566406 145.976562 189.539062 145.253906 189.808594 144.171875 L 192.261719 134.386719 C 192.582031 133.113281 191.808594 131.820312 190.53125 131.5 C 189.25 131.1875 187.960938 131.953125 187.644531 133.230469 L 185.191406 143.015625 C 184.867188 144.292969 185.644531 145.585938 186.921875 145.90625 C 187.117188 145.953125 187.308594 145.976562 187.503906 145.976562 Z M 187.503906 145.976562 " fill-opacity="1" fill-rule="nonzero"/><path fill="#000000" d="M 260.984375 151.644531 C 259.710938 151.320312 258.417969 152.09375 258.09375 153.371094 L 255.644531 163.132812 C 255.320312 164.410156 256.09375 165.703125 257.371094 166.019531 C 257.566406 166.070312 257.761719 166.09375 257.953125 166.09375 C 259.019531 166.09375 259.988281 165.375 260.261719 164.292969 L 262.714844 154.53125 C 263.035156 153.257812 262.257812 151.964844 260.984375 151.644531 Z M 260.984375 151.644531 " fill-opacity="1" fill-rule="nonzero"/><path fill="#000000" d="M 166.808594 203.785156 C 165.53125 204.101562 164.753906 205.394531 165.070312 206.667969 L 167.503906 216.453125 C 167.769531 217.539062 168.742188 218.261719 169.8125 218.261719 C 170.003906 218.261719 170.195312 218.242188 170.386719 218.191406 C 171.664062 217.875 172.441406 216.582031 172.125 215.308594 L 169.691406 205.519531 C 169.375 204.242188 168.082031 203.464844 166.808594 203.785156 Z M 166.808594 203.785156 " fill-opacity="1" fill-rule="nonzero"/><path fill="#000000" d="M 120.289062 260.734375 C 119.96875 259.457031 118.675781 258.675781 117.402344 258.996094 C 116.125 259.3125 115.351562 260.605469 115.667969 261.882812 L 118.097656 271.644531 C 118.367188 272.730469 119.339844 273.449219 120.40625 273.449219 C 120.597656 273.449219 120.789062 273.429688 120.984375 273.378906 C 122.257812 273.0625 123.035156 271.769531 122.71875 270.492188 Z M 120.289062 260.734375 " fill-opacity="1" fill-rule="nonzero"/></svg>