<svg xmlns="http://www.w3.org/2000/svg" xmlns:xlink="http://www.w3.org/1999/xlink" width="500" zoomAndPan="magnify" viewBox="0 0 375 374.999991" height="500" preserveAspectRatio="xMidYMid meet" version="1.0"><defs><clipPath id="922f4d5a68"><path d="M 37.5 62.0625 L 337.5 62.0625 L 337.5 313.3125 L 37.5 313.3125 Z M 37.5 62.0625 " clip-rule="nonzero"/></clipPath><clipPath id="7b61215a43"><path d="M 37.5 117 L 337.5 117 L 337.5 125 L 37.5 125 Z M 37.5 117 " clip-rule="nonzero"/></clipPath><clipPath id="9f9b7f924b"><path d="M 138 117 L 146 117 L 146 313.3125 L 138 313.3125 Z M 138 117 " clip-rule="nonzero"/></clipPath><clipPath id="2261a3ddd5"><path d="M 278 252 L 307 252 L 307 313.3125 L 278 313.3125 Z M 278 252 " clip-rule="nonzero"/></clipPath><clipPath id="14c1db79c7"><path d="M 242 234 L 271 234 L 271 313.3125 L 242 313.3125 Z M 242 234 " clip-rule="nonzero"/></clipPath><clipPath id="42c0299f7b"><path d="M 205 223 L 234 223 L 234 313.3125 L 205 313.3125 Z M 205 223 " clip-rule="nonzero"/></clipPath><clipPath id="378235d260"><path d="M 169 198 L 198 198 L 198 313.3125 L 169 313.3125 Z M 169 198 " clip-rule="nonzero"/></clipPath></defs><g clip-path="url(#922f4d5a68)"><path fill="#000000" d="M 62.742188 68.605469 C 52.496094 68.605469 44.160156 76.949219 44.160156 87.210938 L 44.160156 288.152344 C 44.160156 298.414062 52.496094 306.761719 62.742188 306.761719 L 312.054688 306.761719 C 322.300781 306.761719 330.636719 298.414062 330.636719 288.152344 L 330.636719 87.210938 C 330.636719 76.949219 322.300781 68.605469 312.054688 68.605469 Z M 312.050781 313.3125 L 62.742188 313.3125 C 48.890625 313.3125 37.621094 302.027344 37.621094 288.152344 L 37.621094 87.210938 C 37.621094 73.339844 48.890625 62.054688 62.742188 62.054688 L 312.054688 62.054688 C 325.902344 62.054688 337.179688 73.339844 337.179688 87.210938 L 337.179688 288.148438 C 337.179688 302.027344 325.902344 313.3125 312.054688 313.3125 Z M 312.050781 313.3125 " fill-opacity="1" fill-rule="evenodd"/></g><g clip-path="url(#7b61215a43)"><path fill="#000000" d="M 333.90625 124.308594 L 40.890625 124.308594 C 39.085938 124.308594 37.621094 122.847656 37.621094 121.03125 C 37.621094 119.222656 39.085938 117.757812 40.890625 117.757812 L 333.90625 117.757812 C 335.710938 117.757812 337.175781 119.222656 337.175781 121.03125 C 337.175781 122.847656 335.710938 124.308594 333.90625 124.308594 Z M 333.90625 124.308594 " fill-opacity="1" fill-rule="evenodd"/></g><path fill="#000000" d="M 210.625 85.511719 C 206.402344 85.511719 202.96875 88.953125 202.96875 93.179688 C 202.96875 97.410156 206.402344 100.851562 210.625 100.851562 C 214.847656 100.851562 218.28125 97.410156 218.28125 93.179688 C 218.28125 88.953125 214.847656 85.511719 210.625 85.511719 Z M 210.625 107.398438 C 202.796875 107.398438 196.429688 101.019531 196.429688 93.179688 C 196.429688 85.34375 202.796875 78.960938 210.625 78.960938 C 218.453125 78.960938 224.820312 85.34375 224.820312 93.179688 C 224.820312 101.019531 218.453125 107.398438 210.625 107.398438 Z M 210.625 107.398438 " fill-opacity="1" fill-rule="evenodd"/><path fill="#000000" d="M 255.199219 85.511719 C 250.980469 85.511719 247.546875 88.953125 247.546875 93.179688 C 247.546875 97.410156 250.980469 100.851562 255.199219 100.851562 C 259.421875 100.851562 262.855469 97.410156 262.855469 93.179688 C 262.855469 88.953125 259.421875 85.511719 255.199219 85.511719 Z M 255.199219 107.398438 C 247.375 107.398438 241.003906 101.019531 241.003906 93.179688 C 241.003906 85.34375 247.375 78.960938 255.199219 78.960938 C 263.03125 78.960938 269.398438 85.34375 269.398438 93.179688 C 269.398438 101.019531 263.03125 107.398438 255.199219 107.398438 Z M 255.199219 107.398438 " fill-opacity="1" fill-rule="evenodd"/><path fill="#000000" d="M 299.777344 85.511719 C 295.554688 85.511719 292.121094 88.953125 292.121094 93.179688 C 292.121094 97.410156 295.554688 100.851562 299.777344 100.851562 C 304 100.851562 307.433594 97.410156 307.433594 93.179688 C 307.433594 88.953125 304 85.511719 299.777344 85.511719 Z M 299.777344 107.398438 C 291.949219 107.398438 285.582031 101.019531 285.582031 93.179688 C 285.582031 85.34375 291.949219 78.960938 299.777344 78.960938 C 307.605469 78.960938 313.976562 85.34375 313.976562 93.179688 C 313.976562 101.019531 307.605469 107.398438 299.777344 107.398438 Z M 299.777344 107.398438 " fill-opacity="1" fill-rule="evenodd"/><path fill="#000000" d="M 72.535156 88.003906 C 69.683594 88.003906 67.363281 90.324219 67.363281 93.179688 C 67.363281 96.039062 69.683594 98.359375 72.535156 98.359375 L 152.992188 98.359375 C 155.84375 98.359375 158.164062 96.039062 158.164062 93.179688 C 158.164062 90.324219 155.84375 88.003906 152.992188 88.003906 Z M 152.992188 104.910156 L 72.535156 104.910156 C 66.078125 104.910156 60.824219 99.648438 60.824219 93.179688 C 60.824219 86.714844 66.078125 81.453125 72.535156 81.453125 L 152.992188 81.453125 C 159.449219 81.453125 164.703125 86.714844 164.703125 93.179688 C 164.703125 99.648438 159.449219 104.910156 152.992188 104.910156 Z M 152.992188 104.910156 " fill-opacity="1" fill-rule="evenodd"/><path fill="#000000" d="M 91.570312 147.621094 C 76.75 147.621094 64.691406 159.699219 64.691406 174.539062 C 64.691406 189.382812 76.75 201.453125 91.570312 201.453125 C 106.390625 201.453125 118.445312 189.382812 118.445312 174.539062 C 118.445312 159.699219 106.390625 147.621094 91.570312 147.621094 Z M 91.570312 208.003906 C 73.144531 208.003906 58.152344 192.992188 58.152344 174.539062 C 58.152344 156.082031 73.144531 141.070312 91.570312 141.070312 C 109.996094 141.070312 124.984375 156.082031 124.984375 174.539062 C 124.988281 192.992188 109.996094 208.003906 91.570312 208.003906 Z M 91.570312 208.003906 " fill-opacity="1" fill-rule="evenodd"/><path fill="#000000" d="M 121.714844 177.8125 L 91.570312 177.8125 C 89.761719 177.8125 88.296875 176.34375 88.296875 174.539062 L 88.300781 144.347656 C 88.300781 142.539062 89.761719 141.070312 91.570312 141.070312 C 93.375 141.070312 94.839844 142.539062 94.839844 144.347656 L 94.839844 171.261719 L 121.714844 171.261719 C 123.523438 171.261719 124.988281 172.730469 124.988281 174.539062 C 124.988281 176.34375 123.523438 177.8125 121.714844 177.8125 Z M 121.714844 177.8125 " fill-opacity="1" fill-rule="evenodd"/><path fill="#000000" d="M 121.71875 228.507812 L 61.421875 228.507812 C 59.617188 228.507812 58.152344 227.039062 58.152344 225.230469 C 58.152344 223.421875 59.617188 221.957031 61.421875 221.957031 L 121.71875 221.957031 C 123.523438 221.957031 124.988281 223.421875 124.988281 225.230469 C 124.988281 227.039062 123.523438 228.507812 121.71875 228.507812 Z M 121.71875 228.507812 " fill-opacity="1" fill-rule="evenodd"/><path fill="#000000" d="M 121.71875 249.003906 L 61.421875 249.003906 C 59.617188 249.003906 58.152344 247.535156 58.152344 245.726562 C 58.152344 243.917969 59.617188 242.453125 61.421875 242.453125 L 121.71875 242.453125 C 123.523438 242.453125 124.988281 243.917969 124.988281 245.726562 C 124.988281 247.535156 123.523438 249.003906 121.71875 249.003906 Z M 121.71875 249.003906 " fill-opacity="1" fill-rule="evenodd"/><path fill="#000000" d="M 121.71875 269.503906 L 61.421875 269.503906 C 59.617188 269.503906 58.152344 268.039062 58.152344 266.230469 C 58.152344 264.421875 59.617188 262.953125 61.421875 262.953125 L 121.71875 262.953125 C 123.523438 262.953125 124.988281 264.421875 124.988281 266.230469 C 124.988281 268.039062 123.523438 269.503906 121.71875 269.503906 Z M 121.71875 269.503906 " fill-opacity="1" fill-rule="evenodd"/><path fill="#000000" d="M 121.71875 290 L 61.421875 290 C 59.617188 290 58.152344 288.535156 58.152344 286.726562 C 58.152344 284.917969 59.617188 283.449219 61.421875 283.449219 L 121.71875 283.449219 C 123.523438 283.449219 124.988281 284.917969 124.988281 286.726562 C 124.988281 288.535156 123.523438 290 121.71875 290 Z M 121.71875 290 " fill-opacity="1" fill-rule="evenodd"/><g clip-path="url(#9f9b7f924b)"><path fill="#000000" d="M 142.246094 313.3125 C 140.441406 313.3125 138.976562 311.847656 138.976562 310.039062 L 138.976562 121.03125 C 138.976562 119.222656 140.441406 117.757812 142.246094 117.757812 C 144.054688 117.757812 145.519531 119.222656 145.519531 121.03125 L 145.519531 310.039062 C 145.519531 311.847656 144.054688 313.3125 142.246094 313.3125 Z M 142.246094 313.3125 " fill-opacity="1" fill-rule="evenodd"/></g><g clip-path="url(#2261a3ddd5)"><path fill="#000000" d="M 303.480469 313.3125 C 301.675781 313.3125 300.210938 311.847656 300.210938 310.039062 L 300.210938 258.722656 L 285.113281 258.722656 L 285.113281 310.039062 C 285.113281 311.847656 283.648438 313.3125 281.84375 313.3125 C 280.039062 313.3125 278.574219 311.847656 278.574219 310.039062 L 278.574219 255.449219 C 278.574219 253.640625 280.039062 252.175781 281.84375 252.175781 L 303.480469 252.175781 C 305.289062 252.175781 306.75 253.640625 306.75 255.449219 L 306.75 310.039062 C 306.75 311.847656 305.289062 313.3125 303.480469 313.3125 Z M 303.480469 313.3125 " fill-opacity="1" fill-rule="evenodd"/></g><g clip-path="url(#14c1db79c7)"><path fill="#000000" d="M 267.089844 313.3125 C 265.285156 313.3125 263.820312 311.847656 263.820312 310.039062 L 263.820312 240.726562 L 248.722656 240.726562 L 248.722656 310.039062 C 248.722656 311.847656 247.257812 313.3125 245.453125 313.3125 C 243.648438 313.3125 242.183594 311.847656 242.183594 310.039062 L 242.183594 237.449219 C 242.183594 235.636719 243.648438 234.175781 245.453125 234.175781 L 267.089844 234.175781 C 268.898438 234.175781 270.359375 235.636719 270.359375 237.449219 L 270.359375 310.039062 C 270.359375 311.847656 268.898438 313.3125 267.089844 313.3125 Z M 267.089844 313.3125 " fill-opacity="1" fill-rule="evenodd"/></g><g clip-path="url(#42c0299f7b)"><path fill="#000000" d="M 230.699219 313.3125 C 228.894531 313.3125 227.429688 311.847656 227.429688 310.039062 L 227.429688 229.917969 L 212.332031 229.917969 L 212.332031 310.039062 C 212.332031 311.847656 210.867188 313.3125 209.0625 313.3125 C 207.257812 313.3125 205.792969 311.847656 205.792969 310.039062 L 205.792969 226.644531 C 205.792969 224.835938 207.257812 223.367188 209.0625 223.367188 L 230.699219 223.367188 C 232.507812 223.367188 233.96875 224.835938 233.96875 226.644531 L 233.96875 310.039062 C 233.96875 311.847656 232.507812 313.3125 230.699219 313.3125 Z M 230.699219 313.3125 " fill-opacity="1" fill-rule="evenodd"/></g><g clip-path="url(#378235d260)"><path fill="#000000" d="M 194.308594 313.3125 C 192.503906 313.3125 191.039062 311.847656 191.039062 310.039062 L 191.039062 204.714844 L 175.941406 204.714844 L 175.941406 310.039062 C 175.941406 311.847656 174.476562 313.3125 172.671875 313.3125 C 170.867188 313.3125 169.402344 311.847656 169.402344 310.039062 L 169.402344 201.441406 C 169.402344 199.632812 170.867188 198.164062 172.671875 198.164062 L 194.308594 198.164062 C 196.117188 198.164062 197.578125 199.632812 197.578125 201.441406 L 197.578125 310.039062 C 197.578125 311.847656 196.117188 313.3125 194.308594 313.3125 Z M 194.308594 313.3125 " fill-opacity="1" fill-rule="evenodd"/></g><path fill="#000000" d="M 313.550781 196.976562 L 222.597656 196.976562 C 220.792969 196.976562 219.328125 195.511719 219.328125 193.703125 C 219.328125 191.894531 220.792969 190.425781 222.597656 190.425781 L 313.550781 190.425781 C 315.355469 190.425781 316.820312 191.894531 316.820312 193.703125 C 316.820312 195.511719 315.355469 196.976562 313.550781 196.976562 Z M 313.550781 196.976562 " fill-opacity="1" fill-rule="evenodd"/><path fill="#000000" d="M 313.550781 172.757812 L 222.597656 172.757812 C 220.792969 172.757812 219.328125 171.289062 219.328125 169.480469 C 219.328125 167.671875 220.792969 166.207031 222.597656 166.207031 L 313.550781 166.207031 C 315.355469 166.207031 316.820312 167.671875 316.820312 169.480469 C 316.820312 171.289062 315.355469 172.757812 313.550781 172.757812 Z M 313.550781 172.757812 " fill-opacity="1" fill-rule="evenodd"/><path fill="#000000" d="M 313.550781 148.535156 L 222.597656 148.535156 C 220.792969 148.535156 219.328125 147.070312 219.328125 145.261719 C 219.328125 143.445312 220.792969 141.984375 222.597656 141.984375 L 313.550781 141.984375 C 315.355469 141.984375 316.820312 143.445312 316.820312 145.261719 C 316.820312 147.070312 315.355469 148.535156 313.550781 148.535156 Z M 313.550781 148.535156 " fill-opacity="1" fill-rule="evenodd"/></svg>