<svg xmlns="http://www.w3.org/2000/svg" xmlns:xlink="http://www.w3.org/1999/xlink" width="500" zoomAndPan="magnify" viewBox="0 0 375 374.999991" height="500" preserveAspectRatio="xMidYMid meet" version="1.0"><defs><clipPath id="4347da8a60"><path d="M 38.671875 299 L 336.328125 299 L 336.328125 324.1875 L 38.671875 324.1875 Z M 38.671875 299 " clip-rule="nonzero"/></clipPath><clipPath id="8d9bb411e5"><path d="M 109 51.1875 L 266 51.1875 L 266 246 L 109 246 Z M 109 51.1875 " clip-rule="nonzero"/></clipPath></defs><g clip-path="url(#4347da8a60)"><path fill="#040606" d="M 203.40625 314.453125 L 171.59375 314.453125 C 169.132812 314.453125 167.152344 312.46875 167.152344 310.007812 C 167.152344 307.574219 169.132812 305.589844 171.59375 305.589844 L 203.40625 305.589844 C 205.867188 305.589844 207.847656 307.574219 207.847656 310.007812 C 207.847656 312.46875 205.867188 314.453125 203.40625 314.453125 Z M 38.671875 299.238281 L 38.671875 305.484375 C 38.671875 315.855469 47.074219 324.246094 57.40625 324.246094 L 317.566406 324.246094 C 327.949219 324.246094 336.328125 315.832031 336.328125 305.484375 L 336.328125 299.238281 L 38.671875 299.238281 " fill-opacity="1" fill-rule="nonzero"/></g><path fill="#040606" d="M 160.679688 222.289062 C 167.890625 222.289062 174.445312 219.351562 179.175781 214.613281 L 160.679688 196.117188 L 160.679688 169.949219 C 146.277344 169.949219 134.570312 181.644531 134.570312 196.117188 C 134.570312 210.566406 146.277344 222.289062 160.679688 222.289062 " fill-opacity="1" fill-rule="nonzero"/><path fill="#040606" d="M 165.433594 193.738281 L 183.90625 212.234375 C 188.636719 207.523438 191.542969 200.960938 191.542969 193.738281 C 191.542969 179.289062 179.863281 167.566406 165.433594 167.566406 L 165.433594 193.738281 " fill-opacity="1" fill-rule="nonzero"/><path fill="#040606" d="M 320.949219 121.019531 C 320.949219 108.1875 310.5625 97.761719 297.71875 97.761719 L 278.035156 97.761719 L 278.035156 119.167969 L 289.609375 119.167969 C 294.734375 119.167969 298.910156 123.320312 298.910156 128.457031 L 298.910156 271.746094 L 76.089844 271.746094 L 76.089844 128.457031 C 76.089844 123.347656 80.238281 119.167969 85.390625 119.167969 L 96.941406 119.167969 L 96.964844 97.761719 L 77.253906 97.761719 C 64.4375 97.761719 54.050781 108.160156 54.050781 121.019531 L 54.050781 290.269531 L 320.949219 290.269531 L 320.949219 121.019531 " fill-opacity="1" fill-rule="nonzero"/><g clip-path="url(#8d9bb411e5)"><path fill="#040606" d="M 119.558594 64.367188 C 119.558594 62.671875 120.90625 61.347656 122.597656 61.347656 L 252.402344 61.347656 C 254.09375 61.347656 255.441406 62.671875 255.441406 64.367188 L 255.441406 231.949219 C 255.441406 233.640625 254.09375 234.992188 252.402344 234.992188 L 122.597656 234.992188 C 120.90625 234.992188 119.558594 233.613281 119.558594 231.949219 Z M 122.597656 245.097656 L 252.402344 245.097656 C 259.640625 245.097656 265.535156 239.222656 265.535156 231.949219 L 265.535156 64.367188 C 265.535156 57.113281 259.640625 51.1875 252.402344 51.1875 L 122.597656 51.1875 C 115.359375 51.1875 109.464844 57.113281 109.464844 64.367188 L 109.464844 231.949219 C 109.464844 239.222656 115.359375 245.097656 122.597656 245.097656 " fill-opacity="1" fill-rule="nonzero"/></g><path fill="#040606" d="M 134.570312 107.3125 L 152.273438 107.3125 L 152.273438 144.570312 L 134.570312 144.570312 L 134.570312 107.3125 " fill-opacity="1" fill-rule="nonzero"/><path fill="#040606" d="M 163.953125 95.617188 L 181.660156 95.617188 L 181.660156 144.570312 L 163.953125 144.570312 L 163.953125 95.617188 " fill-opacity="1" fill-rule="nonzero"/><path fill="#040606" d="M 193.339844 73.679688 L 211.046875 73.679688 L 211.046875 144.570312 L 193.339844 144.570312 L 193.339844 73.679688 " fill-opacity="1" fill-rule="nonzero"/><path fill="#040606" d="M 222.75 79.527344 L 240.457031 79.527344 L 240.457031 144.570312 L 222.75 144.570312 L 222.75 79.527344 " fill-opacity="1" fill-rule="nonzero"/><path fill="#040606" d="M 202.191406 167.195312 L 240.429688 167.195312 L 240.429688 176.800781 L 202.191406 176.800781 L 202.191406 167.195312 " fill-opacity="1" fill-rule="nonzero"/><path fill="#040606" d="M 202.191406 190.113281 L 240.429688 190.113281 L 240.429688 199.71875 L 202.191406 199.71875 L 202.191406 190.113281 " fill-opacity="1" fill-rule="nonzero"/><path fill="#040606" d="M 202.191406 213.054688 L 240.429688 213.054688 L 240.429688 222.632812 L 202.191406 222.632812 L 202.191406 213.054688 " fill-opacity="1" fill-rule="nonzero"/></svg>